<?xml version="1.0" encoding="UTF-8" standalone="no"?>
<svg width="66px" height="66px" viewBox="0 0 66 66" version="1.1" xmlns="http://www.w3.org/2000/svg" xmlns:xlink="http://www.w3.org/1999/xlink">
    <!-- Generator: Sketch 47.1 (45422) - http://www.bohemiancoding.com/sketch -->
    <title>app icon</title>
    <desc>Created with Sketch.</desc>
    <defs></defs>
    <g id="Symbols" stroke="none" stroke-width="1" fill="none" fill-rule="evenodd">
        <g id="app-icon">
            <g id="Group-4">
                <g id="App-Icon">
                    <rect id="App-Icon-Mask-1536x1536" fill="#000000" x="0" y="0" width="66" height="66"></rect>
                    <polygon id="Stroke-1" fill="#9900E0" fill-rule="nonzero" points="0 47.5664062 66 47.5664062 66 45.2460938 0 45.2460938"></polygon>
                    <path d="M66,40.5195312 L47.0078125,40.5195312 C46.3296843,40.5102127 44.5951037,40.1167205 40.2617188,39.015625 C38.0398165,38.4576507 37.0427889,38.2111055 35.9648438,37.984375 C34.5190393,37.6379493 33.5580085,37.46875 32.9570312,37.46875 C32.3676858,37.46875 31.4042309,37.6374299 29.9492188,37.984375 C28.8972203,38.2080738 27.8664505,38.4645083 25.7382812,39.015625 C21.362538,40.1242792 19.6678424,40.5102127 18.9921875,40.5195312 L0,40.5195312 L0,42.8398438 L18.9921875,42.8398438 C19.5758722,42.8398437 20.5419894,42.6702143 22,42.3242188 C23.0368756,42.0960813 23.9260097,41.8737884 26.2539062,41.2929688 C30.4597036,40.2064471 32.2524608,39.798381 32.9570312,39.7890625 C33.6625334,39.798381 35.4352643,40.2009772 39.703125,41.2929688 C42.0035339,41.8633281 42.9417945,42.0957918 44,42.3242188 C45.4605456,42.6702926 46.4248785,42.8398437 47.0078125,42.8398438 L66,42.8398438 L66,40.5195312 Z" id="Stroke-3" fill="#00C359" fill-rule="nonzero"></path>
                    <path d="M66,35.7070312 L49.7578125,35.7070312 C49.012393,35.7070312 47.8954593,35.4166405 46.40625,34.8476562 C45.2555556,34.3814302 44.2546114,33.9265864 41.8515625,32.7851562 C41.8109646,32.7713626 41.8109646,32.7713626 41.765625,32.7421875 C39.4341307,31.6478169 38.3201673,31.1441521 37.0820312,30.6796875 C35.3650145,29.9968733 34.0181556,29.6484375 32.9140625,29.6484375 C31.7823689,29.6484375 30.4475071,29.9937311 28.7890625,30.6367188 C27.5509167,31.1313089 26.421467,31.6514946 24.1914062,32.7421875 C24.1583481,32.7459843 24.1303713,32.759517 24.0625,32.7851562 C21.6869805,33.9415467 20.7312584,34.3859588 19.59375,34.8476562 C18.1522762,35.4180739 17.0709986,35.7070312 16.328125,35.7070312 L0,35.7070312 L0,38.0273438 L16.328125,38.0273438 C17.4364973,38.0273438 18.7621341,37.6732348 20.453125,36.9960938 C21.6627497,36.5124013 22.6449356,36.0556834 25.0507813,34.890625 C25.1407476,34.8482942 25.1686553,34.8347949 25.2226563,34.8046875 C27.3783113,33.7661609 28.472534,33.2621995 29.6054688,32.828125 C31.0479961,32.2507384 32.138128,31.96875 32.9140625,31.96875 C33.663082,31.96875 34.7715609,32.2555163 36.2226563,32.828125 C37.4109185,33.2801939 38.4936721,33.7697476 40.7773438,34.8476562 C40.8193018,34.8690887 40.8193018,34.8690887 40.8632812,34.890625 C43.3136904,36.0483006 44.3411369,36.5151873 45.5898438,36.9960938 C47.2972056,37.6743785 48.6519162,38.0273438 49.7578125,38.0273438 L66,38.0273438 L66,35.7070312 Z" id="Stroke-5" fill="#0090EB" fill-rule="nonzero"></path>
                    <path d="M66,30.8945312 L49.9296875,30.8945312 C48.8366725,30.8989009 47.6787198,30.5228104 46.40625,29.7773437 C45.3222247,29.1428825 44.3291823,28.3939245 42.625,26.984375 C42.4926709,26.8790593 42.4374671,26.8334401 42.1953125,26.640625 C40.1112841,24.9102853 39.1375594,24.1621849 37.8984375,23.4179687 C36.170621,22.3765326 34.5569882,21.828125 32.9140625,21.828125 C31.2356885,21.828125 29.6240941,22.3781105 27.9296875,23.4179687 C26.6937152,24.1692088 25.7290834,24.9277496 23.71875,26.640625 C23.4056518,26.901033 23.3685819,26.9325002 23.2460938,27.0273437 C21.6001249,28.4299448 20.6295311,29.177642 19.59375,29.7773437 C18.349177,30.531214 17.2371495,30.898901 16.15625,30.8945312 L0,30.8945312 L0,33.2148437 L16.15625,33.2148437 C17.7023069,33.2148438 19.2036442,32.7185548 20.796875,31.796875 C21.9591863,31.0829209 23.0069516,30.2757746 24.75,28.7890625 C24.8709077,28.6974658 24.9081826,28.6658247 25.2226562,28.4023437 C27.1397314,26.770577 28.0436019,26.059816 29.1328125,25.3945312 C30.4995779,24.558681 31.7144978,24.1440678 32.9140625,24.1484375 C34.0812757,24.1440678 35.3050332,24.5599728 36.6953125,25.3945312 C37.8059543,26.0651525 38.7219575,26.7689062 40.6914062,28.4023437 C40.9581364,28.6176508 41.013607,28.6634905 41.1210938,28.7460937 C42.9429401,30.2549206 44.0091768,31.0590821 45.203125,31.7539062 C46.8327507,32.7125243 48.3738267,33.2148438 49.9296875,33.2148437 L66,33.2148437 L66,30.8945312 Z" id="Stroke-7" fill="#FEC300" fill-rule="nonzero"></path>
                    <path d="M66,26.1679688 L51.046875,26.1679688 C49.4973732,26.1645313 48.1228305,25.6261872 46.7070312,24.5351562 C45.6056295,23.6751063 44.731103,22.7400334 42.9257812,20.5820312 C42.871681,20.5352112 42.871681,20.5352112 42.8398438,20.4960937 C41.8671257,19.3439689 41.4052183,18.8104519 40.8203125,18.1757812 C40.0547553,17.3653611 39.332894,16.6872832 38.5859375,16.1132812 C36.7767216,14.7078281 35.0672012,13.9648437 32.9140625,13.9648437 C30.7271837,13.9648437 29.0116009,14.7080069 27.1992188,16.1132812 C26.4592498,16.6888068 25.7397045,17.3678188 24.9648438,18.1757812 C24.3964187,18.8149154 23.9305232,19.3575769 22.9882812,20.4960937 C22.9940602,20.4786794 22.8871936,20.6066242 22.859375,20.625 C22.1538995,21.4843861 21.7808976,21.9223839 21.3554688,22.3867187 C20.1956386,23.6910894 19.301004,24.5245737 18.3476562,25.1367188 C17.2910362,25.8187385 16.1977827,26.1645314 14.953125,26.1679688 L0,26.1679688 L0,28.4882812 L14.953125,28.4882812 C16.6600842,28.4882812 18.1842598,28.006189 19.6367188,27.0703125 C20.7663456,26.3436528 21.795568,25.38478 23.0742188,23.9335937 C23.5309877,23.4485372 23.9168705,22.995414 24.6210938,22.1289062 C24.6668816,22.0976417 24.7738232,21.9696071 24.7929688,21.9570312 C26.5988058,19.7847984 27.476918,18.8388246 28.6171875,17.9609375 C30.0490426,16.8426791 31.2789466,16.2885937 32.9140625,16.2851562 C34.5147758,16.2885937 35.7401851,16.8425556 37.1679688,17.9609375 C38.3192914,18.8397704 39.195881,19.7777832 41.0351562,21.9570312 C41.0989348,22.0345 41.0989348,22.0345 41.1640625,22.0859375 C42.0754818,23.1924486 42.544102,23.7332503 43.0976562,24.3632812 C43.8733389,25.1545147 44.5819423,25.8200681 45.2890625,26.3828125 C47.0852086,27.7603483 48.9432954,28.4882812 51.046875,28.4882812 L66,28.4882812 L66,26.1679688 Z" id="Stroke-9" fill="#FF4E22" fill-rule="nonzero"></path>
                </g>
                <path d="M0,0 L66,0 L66,66 L0,66 L0,0 Z M66,45.4475955 L66,36.4347395 L66,29.5652605 L66,20.5524045 C66,19.767788 66,18.9820344 65.9953989,18.198555 C65.9919481,17.536748 65.9838963,16.8760781 65.9654921,16.2154083 C65.9263831,14.7758075 65.8401132,13.3236984 65.5813036,11.9000173 C65.3190433,10.454731 64.8911448,9.11064873 64.2136388,7.79726889 C63.5499361,6.50663156 62.6826365,5.32629539 61.6473982,4.30401965 C60.6121599,3.27946966 59.4170349,2.42207711 58.1126346,1.76595575 C56.7852291,1.09732601 55.4256162,0.673178239 53.9636297,0.413913647 C52.5234982,0.158060431 51.0546102,0.0727760258 49.598375,0.0341137621 C48.9289209,0.0159197556 48.2606171,0.00909700323 45.2112652,0 L36.0931166,0.00341137621 L44.5602154,0 L29.9068834,0 L20.789885,0 C19.9962024,0 19.2025197,0 16.4027753,0.0341137621 C14.9465401,0.0727760258 13.477652,0.158060431 12.0375206,0.413913647 C10.5755341,0.673178239 9.21592115,1.09732601 7.88851563,1.76595575 C6.58296514,2.42207711 5.38899034,3.27946966 4.35375207,4.30401965 C3.31851379,5.32629539 2.45121417,6.50663156 1.78636115,7.79726889 C1.11000548,9.11064873 0.682106995,10.454731 0.418696368,11.9000173 C0.1598868,13.3236984 0.0747672085,14.7758075 0.0356582071,16.2154083 C0.0172539712,16.8760781 0.00920211797,17.536748 0.00575132373,18.198555 C0,18.9820344 0,19.767788 0,20.5524045 L0,29.5652605 L0,36.4347395 L0,45.4475955 C0,46.232212 -1.03461539e-13,47.0168285 0.00575132373,47.8025822 C0.00920211797,48.463252 0.0172539712,49.1239219 0.0356582071,49.7845917 C0.0747672085,51.2230554 0.1598868,52.6763016 0.418696368,54.0988455 C0.682106995,55.5441319 1.11000548,56.8893513 1.78636115,58.2027311 C2.45121417,59.4922313 3.31851379,60.6725675 4.35375207,61.6959803 C5.38899034,62.7193932 6.58296514,63.5779229 7.88851563,64.2340442 C9.21592115,64.902674 10.5755341,65.3268218 12.0375206,65.5860864 C13.477652,65.8419396 14.9465401,65.927224 16.4027753,65.9658862 C17.0710791,65.9840802 17.7393829,65.990903 20.789885,66 L29.9068834,66 L45.2112652,66 C46.0049479,66 46.7986306,66 49.598375,65.9658862 C51.0546102,65.927224 52.5234982,65.8419396 53.9636297,65.5860864 C55.4256162,65.3268218 56.7852291,64.902674 58.1126346,64.2340442 C59.4170349,63.5779229 60.6121599,62.7193932 61.6473982,61.6959803 C62.6826365,60.6725675 63.5499361,59.4922313 64.2136388,58.2027311 C64.8911448,56.8893513 65.3190433,55.5441319 65.5813036,54.0988455 C65.8401132,52.6763016 65.9263831,51.2230554 65.9654921,49.7845917 C65.9838963,49.1239219 65.9919481,48.463252 65.9953989,47.8025822 C66,47.0168285 66,46.232212 66,45.4475955 Z" id="App-Icon-Mask-76x76" fill="#141414"></path>
            </g>
        </g>
    </g>
</svg>