<svg width="342" height="348" viewBox="0 0 342 348" xmlns="http://www.w3.org/2000/svg" xmlns:xlink="http://www.w3.org/1999/xlink"><defs><path id="a" d="M0 348h330.265V0H0z"/><path id="c" d="M0 348h330.265V0H0z"/><path id="e" d="M0 348h330.265V0H0z"/><path id="g" d="M0 348h330.265V0H0z"/><path id="i" d="M0 348h330.265V0H0z"/><path id="k" d="M0 348h330.265V0H0z"/><path id="m" d="M0 348h330.265V0H0z"/></defs><g fill="none" fill-rule="evenodd"><path fill="#141414" fill-rule="nonzero" d="M60.42.48l-.045 137.233L45.73 184.37l-33.25 97.72v65.43h328.176L341.786.478z"/><path d="M59.941 0l-.045 137.64-14.619 46.576-33.251 97.72L12 348h329.135L342.265.48V0H59.941zm.957 137.615l-.043-.009L60.9.959h280.404l-1.126 346.083H12.958V282.17l33.229-97.656L60.76 138.09l.093.006.045-.48z" fill="#141414" fill-rule="nonzero"/><path fill="#51E07D" fill-rule="nonzero" d="M42.678 216.661h297.978v-.959H42.678z"/><path fill="#51E07D" fill-rule="nonzero" d="M27.339 281.851h-.959l.024-18.395 19.844-59.722h.344l294.063-.494.002.958-293.718.493-19.6 58.993z"/><path fill="#51E07D" fill-rule="nonzero" d="M340.656 263.75l-313.317-.113v-.96l313.317.114z"/><path fill="#51E07D" fill-rule="nonzero" d="M67.403 263.659l-.91-.3 15.734-47.7.91.299zm82.083.112l-.91-.299 15.77-47.814.91.3zm-40.986.003l-.91-.305 7.903-23.537.91.305z"/><path fill="#51E07D" fill-rule="nonzero" d="M124.39 240.628h-16.758l7.86-24.41.912.295-7.456 23.156H123.7l7.917-23.58.909.307zm-40.697 23.146l-.909-.305 7.903-23.537.908.305z"/><path fill="#51E07D" fill-rule="nonzero" d="M100.177 240.628H83.421l7.26-24.682.92.27-6.899 23.453h14.77l7.316-23.569.916.285zm33.159 23.027l-.912-.292 7.497-23.425.912.292zm31.769.12l-.908-.307 7.928-23.473.908.308zm24.977-.355l-.907-.31 7.875-23.116.907.31z"/><path fill="#51E07D" fill-rule="nonzero" d="M149.267 240.628h-17.7l8.235-24.538.909.306-7.812 23.273h15.669l7.553-23.446.912.294zm80.153 23.031l-.91-.3 15.734-47.7.91.299zm82.082.112l-.91-.299 15.771-47.814.91.3zm-40.986.003l-.909-.305 7.903-23.537.909.305z"/><path fill="#51E07D" fill-rule="nonzero" d="M286.406 240.628h-16.758l7.86-24.41.912.295-7.455 23.156h14.752l7.917-23.58.908.307zm-40.696 23.146l-.91-.305 7.903-23.537.909.305z"/><path fill="#51E07D" fill-rule="nonzero" d="M262.194 240.628h-16.757l7.261-24.682.92.27-6.9 23.453h14.77l7.317-23.569.915.285zm33.159 23.027l-.913-.292 7.497-23.425.913.292z"/><path fill="#51E07D" fill-rule="nonzero" d="M311.283 240.628h-17.7l8.235-24.538.91.306-7.812 23.273h15.669l7.552-23.446.913.294zm-96.459 23.027l-.913-.292 7.497-23.425.913.292z"/><path fill="#51E07D" fill-rule="nonzero" d="M230.755 240.628h-17.7l8.235-24.538.908.306-7.811 23.273h15.669l7.552-23.446.913.294zm-48.478 0h-17.7l8.091-24.108.91.305-7.668 22.844h15.668l7.594-23.573.913.294zm24.28 0h-17.7l8.235-24.538.91.306-7.812 23.273h15.668l7.594-23.573.913.294zm-59.932-61.353l-.959-.004.549-154.347.958.004zm145.719 0l-.959-.004.549-154.347.958.004z"/><path d="M134.71 59.438h23.009v-7.82l-5.9-2.275-5.604 2.426H134.71v7.669zm23.968.959h-24.926V50.81h12.362l5.681-2.504 6.883 2.654v9.437z" fill="#51E07D" fill-rule="nonzero"/><path fill="#51E07D" fill-rule="nonzero" d="M151.967 59.438h.959V48.892h-.96zm-48.484-11.275c-6.634 0-12.03 5.53-12.03 12.328 0 6.798 5.396 12.33 12.03 12.33 6.633 0 12.03-5.532 12.03-12.33 0-6.797-5.397-12.328-12.03-12.328zm0 25.616c-7.163 0-12.99-5.96-12.99-13.288 0-7.325 5.827-13.286 12.99-13.286 7.162 0 12.989 5.96 12.989 13.286 0 7.327-5.827 13.288-12.99 13.288zm91.139-37.649c-6.633 0-12.03 5.53-12.03 12.328 0 6.798 5.397 12.33 12.03 12.33 6.634 0 12.03-5.532 12.03-12.33 0-6.797-5.396-12.328-12.03-12.328m0 25.616c-7.162 0-12.989-5.961-12.989-13.288 0-7.326 5.827-13.287 12.99-13.287 7.162 0 12.989 5.96 12.989 13.287 0 7.327-5.827 13.288-12.99 13.288m72.86-25.616c-6.633 0-12.03 5.53-12.03 12.328 0 6.798 5.397 12.33 12.03 12.33 6.633 0 12.03-5.532 12.03-12.33 0-6.797-5.397-12.328-12.03-12.328m0 25.616c-7.162 0-12.99-5.961-12.99-13.288 0-7.326 5.828-13.287 12.99-13.287s12.99 5.96 12.99 13.287c0 7.327-5.828 13.288-12.99 13.288m-72.86 22.396c-6.633 0-12.03 5.53-12.03 12.327 0 6.798 5.397 12.33 12.03 12.33 6.634 0 12.03-5.532 12.03-12.33 0-6.797-5.396-12.327-12.03-12.327m0 25.616c-7.162 0-12.989-5.961-12.989-13.289 0-7.325 5.827-13.286 12.99-13.286 7.162 0 12.989 5.961 12.989 13.286 0 7.328-5.827 13.289-12.99 13.289m0 21.997c-6.633 0-12.03 5.532-12.03 12.33 0 6.797 5.397 12.328 12.03 12.328 6.634 0 12.03-5.53 12.03-12.329 0-6.797-5.396-12.329-12.03-12.329m0 25.616c-7.162 0-12.989-5.96-12.989-13.287 0-7.326 5.827-13.287 12.99-13.287 7.162 0 12.989 5.96 12.989 13.287 0 7.327-5.827 13.287-12.99 13.287m36.43-73.229c-6.633 0-12.03 5.53-12.03 12.327 0 6.798 5.397 12.33 12.03 12.33 6.633 0 12.03-5.532 12.03-12.33 0-6.797-5.397-12.327-12.03-12.327m0 25.616c-7.162 0-12.989-5.961-12.989-13.289 0-7.325 5.827-13.286 12.99-13.286 7.161 0 12.988 5.961 12.988 13.286 0 7.328-5.827 13.289-12.989 13.289m0 21.997c-6.633 0-12.03 5.532-12.03 12.33 0 6.797 5.397 12.328 12.03 12.328 6.633 0 12.03-5.53 12.03-12.329 0-6.797-5.397-12.329-12.03-12.329m0 25.616c-7.162 0-12.989-5.96-12.989-13.287 0-7.326 5.827-13.287 12.99-13.287 7.161 0 12.988 5.96 12.988 13.287 0 7.327-5.827 13.287-12.989 13.287m36.43-73.229c-6.633 0-12.03 5.53-12.03 12.327 0 6.798 5.397 12.33 12.03 12.33 6.633 0 12.03-5.532 12.03-12.33 0-6.797-5.397-12.327-12.03-12.327m0 25.616c-7.162 0-12.99-5.961-12.99-13.289 0-7.325 5.828-13.286 12.99-13.286s12.99 5.961 12.99 13.286c0 7.328-5.828 13.289-12.99 13.289m0 21.997c-6.633 0-12.03 5.532-12.03 12.33 0 6.797 5.397 12.328 12.03 12.328 6.633 0 12.03-5.53 12.03-12.329 0-6.797-5.397-12.329-12.03-12.329m0 25.616c-7.162 0-12.99-5.96-12.99-13.287 0-7.326 5.828-13.287 12.99-13.287s12.99 5.96 12.99 13.287c0 7.327-5.828 13.287-12.99 13.287M317.333 36.13c-6.633 0-12.03 5.53-12.03 12.328 0 6.798 5.397 12.33 12.03 12.33 6.633 0 12.03-5.532 12.03-12.33 0-6.797-5.397-12.328-12.03-12.328m0 25.616c-7.162 0-12.989-5.961-12.989-13.288 0-7.326 5.827-13.287 12.99-13.287 7.161 0 12.988 5.96 12.988 13.287 0 7.327-5.827 13.288-12.989 13.288m0 22.396c-6.633 0-12.03 5.53-12.03 12.327 0 6.798 5.397 12.33 12.03 12.33 6.633 0 12.03-5.532 12.03-12.33 0-6.797-5.397-12.327-12.03-12.327m0 25.616c-7.162 0-12.989-5.961-12.989-13.289 0-7.325 5.827-13.286 12.99-13.286 7.161 0 12.988 5.961 12.988 13.286 0 7.328-5.827 13.289-12.989 13.289m0 21.997c-6.633 0-12.03 5.532-12.03 12.33 0 6.797 5.397 12.328 12.03 12.328 6.633 0 12.03-5.53 12.03-12.329 0-6.797-5.397-12.329-12.03-12.329m0 25.616c-7.162 0-12.989-5.96-12.989-13.287 0-7.326 5.827-13.287 12.99-13.287 7.161 0 12.988 5.96 12.988 13.287 0 7.327-5.827 13.287-12.989 13.287M85.558 107.776c-6.633 0-12.03 5.531-12.03 12.328 0 6.798 5.397 12.33 12.03 12.33 6.633 0 12.03-5.532 12.03-12.33 0-6.797-5.397-12.328-12.03-12.328m0 25.616c-7.162 0-12.99-5.96-12.99-13.288 0-7.326 5.828-13.286 12.99-13.286s12.989 5.96 12.989 13.286c0 7.327-5.827 13.288-12.99 13.288m35.727-25.616c-6.633 0-12.03 5.531-12.03 12.328 0 6.798 5.397 12.33 12.03 12.33 6.633 0 12.03-5.532 12.03-12.33 0-6.797-5.397-12.328-12.03-12.328m0 25.616c-7.163 0-12.99-5.96-12.99-13.288 0-7.326 5.827-13.286 12.99-13.286 7.162 0 12.989 5.96 12.989 13.286 0 7.327-5.827 13.288-12.99 13.288m40.12 21.914h7.82v-23.008h-7.669l-.041 11.697-2.385 5.411 2.275 5.9zm8.78.958h-9.438l-2.655-6.883 2.505-5.68v-12.362h9.587v24.925z"/><g transform="translate(12)"><mask id="b" fill="#fff"><use xlink:href="#a"/></mask><path fill="#51E07D" fill-rule="nonzero" mask="url(#b)" d="M146.678 150.512h11.504v-.958h-11.504z"/></g><g transform="translate(12)"><mask id="d" fill="#fff"><use xlink:href="#c"/></mask><path fill="#51E07D" fill-rule="nonzero" mask="url(#d)" d="M329.785 24.926H47.987L47.94 0h281.845v.959H48.9l.043 23.008h280.842z"/></g><g transform="translate(12)"><mask id="f" fill="#fff"><use xlink:href="#e"/></mask><path fill="#51E07D" fill-rule="nonzero" mask="url(#f)" d="M47.896 180.232l.045-156.265h.959l-.045 155.305 279.8-.637.002.959z"/></g><g transform="translate(12)"><mask id="h" fill="#fff"><use xlink:href="#g"/></mask><path fill="#51E07D" fill-rule="nonzero" mask="url(#h)" d="M0 347.041h.959v-11.983H0z"/></g><g transform="translate(12)"><mask id="j" fill="#fff"><use xlink:href="#i"/></mask><path fill="#51E07D" fill-rule="nonzero" mask="url(#j)" d="M328.656 348H0l.026-66.063 33.25-97.721.908.31L.959 282.17v64.871h327.697z"/></g><g transform="translate(12)"><mask id="l" fill="#fff"><use xlink:href="#k"/></mask><path fill="#51E07D" fill-rule="nonzero" mask="url(#l)" d="M34.188 184.514l-.915-.287 14.683-46.8.915.287z"/></g><g transform="translate(12)"><mask id="n" fill="#fff"><use xlink:href="#m"/></mask><path fill="#51E07D" fill-rule="nonzero" mask="url(#n)" d="M0 282.81h328.656v-.959H0z"/></g></g></svg>