<?xml version="1.0" encoding="UTF-8" standalone="no"?>
<svg width="331px" height="348px" viewBox="0 0 331 348" version="1.1" xmlns="http://www.w3.org/2000/svg" xmlns:xlink="http://www.w3.org/1999/xlink">
    <!-- Generator: Sketch 47.1 (45422) - http://www.bohemiancoding.com/sketch -->
    <title>minimoog art</title>
    <desc>Created with Sketch.</desc>
    <defs>
        <polygon id="path-1" points="0 348 330.265421 348 330.265421 0 0 0"></polygon>
    </defs>
    <g id="Symbols" stroke="none" stroke-width="1" fill="none" fill-rule="evenodd">
        <g id="minimoog-art">
            <g id="Page-1">
                <polygon id="Fill-3" fill="#141414" points="48.4200298 0.479147107 48.3749719 137.712899 33.7302116 184.370783 0.479434711 282.090717 0.479434711 347.520469 328.655898 347.520469 329.78522 0.479147107"></polygon>
                <path d="M47.9411702,0.000287603306 L47.8961124,137.63956 L33.2772364,184.215957 L0.0255008264,281.93685 L-0.000383471074,348.000288 L329.134757,348.000288 L330.265038,0.480585124 L330.265038,0.000287603306 L47.9411702,0.000287603306 Z M48.8979306,137.614635 L48.8547901,137.606007 L48.8998479,0.958965289 L329.304443,0.958965289 L328.177997,347.04161 L0.958294215,347.04161 L0.958294215,282.169808 L34.1870215,184.514106 L48.759881,138.08918 L48.8528727,138.094932 L48.8979306,137.614635 Z" id="Fill-4" fill="#141414"></path>
                <polygon id="Fill-5" fill="#51E07D" points="30.677686 216.661157 328.655802 216.661157 328.655802 215.702479 30.677686 215.702479"></polygon>
                <polygon id="Fill-6" fill="#51E07D" points="15.338843 281.85124 14.3801653 281.85124 14.4041322 263.456132 34.2478017 203.734347 34.5919669 203.733388 328.654843 203.239669 328.65676 204.198347 34.9390083 204.691107 15.338843 263.684298"></polygon>
                <polygon id="Fill-7" fill="#51E07D" points="328.656089 263.749679 15.3391306 263.636555 15.3391306 262.677878 328.656089 262.791002"></polygon>
                <polygon id="Fill-8" fill="#51E07D" points="55.4029421 263.658797 54.493157 263.359689 70.2269752 215.658764 71.1367603 215.957871"></polygon>
                <polygon id="Fill-9" fill="#51E07D" points="137.485501 263.771154 136.575716 263.472046 152.346922 215.657997 153.256707 215.958063"></polygon>
                <polygon id="Fill-10" fill="#51E07D" points="96.4997289 263.77403 95.5909025 263.46917 103.493283 239.931716 104.402109 240.236575"></polygon>
                <polygon id="Fill-11" fill="#51E07D" points="112.389524 240.628099 95.631838 240.628099 103.491078 216.218248 104.403739 216.512562 96.9481025 239.669421 111.700235 239.669421 119.616995 216.089785 120.525821 216.395603"></polygon>
                <polygon id="Fill-12" fill="#51E07D" points="71.6929851 263.77403 70.7841587 263.46917 78.6865388 239.931716 79.5953653 240.236575"></polygon>
                <polygon id="Fill-13" fill="#51E07D" points="88.1772562 240.628099 71.4205289 240.628099 78.6815537 215.945983 79.6009256 216.215372 72.702281 239.669421 87.4716694 239.669421 94.7882975 216.100331 95.7038347 216.385058"></polygon>
                <polygon id="Fill-14" fill="#51E07D" points="121.336383 263.655058 120.423722 263.362661 127.920582 239.938331 128.833243 240.229769"></polygon>
                <polygon id="Fill-15" fill="#51E07D" points="153.105236 263.774893 152.197369 263.468116 160.124674 239.994893 161.032542 240.302628"></polygon>
                <polygon id="Fill-16" fill="#51E07D" points="178.081858 263.419127 177.174949 263.110433 185.050486 239.993838 185.957395 240.303491"></polygon>
                <polygon id="Fill-17" fill="#51E07D" points="137.266922 240.628099 119.566856 240.628099 127.801898 216.089785 128.710724 216.395603 120.899418 239.669421 136.568046 239.669421 144.120509 216.223041 145.03317 216.517355"></polygon>
                <polygon id="Fill-18" fill="#51E07D" points="217.419471 263.658797 216.509686 263.359689 232.243504 215.658764 233.153289 215.957871"></polygon>
                <polygon id="Fill-19" fill="#51E07D" points="299.50203 263.771154 298.592245 263.472046 314.363451 215.657997 315.273236 215.958063"></polygon>
                <polygon id="Fill-20" fill="#51E07D" points="258.516258 263.77403 257.607431 263.46917 265.509812 239.931716 266.418638 240.236575"></polygon>
                <polygon id="Fill-21" fill="#51E07D" points="274.406053 240.628099 257.648367 240.628099 265.507607 216.218248 266.420268 216.512562 258.964631 239.669421 273.716764 239.669421 281.633524 216.089785 282.54235 216.395603"></polygon>
                <polygon id="Fill-22" fill="#51E07D" points="233.709514 263.77403 232.800688 263.46917 240.703068 239.931716 241.611894 240.236575"></polygon>
                <polygon id="Fill-23" fill="#51E07D" points="250.193785 240.628099 233.437058 240.628099 240.698083 215.945983 241.617455 216.215372 234.71881 239.669421 249.488198 239.669421 256.804826 216.100331 257.720364 216.385058"></polygon>
                <polygon id="Fill-24" fill="#51E07D" points="283.352912 263.655058 282.440251 263.362661 289.937111 239.938331 290.849772 240.229769"></polygon>
                <polygon id="Fill-25" fill="#51E07D" points="299.283451 240.628099 281.583385 240.628099 289.818426 216.089785 290.727253 216.395603 282.915947 239.669421 298.584575 239.669421 306.137038 216.223041 307.049699 216.517355"></polygon>
                <polygon id="Fill-26" fill="#51E07D" points="202.823987 263.655058 201.911326 263.362661 209.408185 239.938331 210.320846 240.229769"></polygon>
                <polygon id="Fill-27" fill="#51E07D" points="218.754526 240.628099 201.05446 240.628099 209.289501 216.089785 210.198327 216.395603 202.387021 239.669421 218.05565 239.669421 225.608112 216.223041 226.520774 216.517355"></polygon>
                <polygon id="Fill-28" fill="#51E07D" points="170.277167 240.628099 152.577101 240.628099 160.66834 216.520231 161.577167 216.825091 153.909663 239.669421 169.578291 239.669421 177.171977 216.095537 178.084638 216.389851"></polygon>
                <polygon id="Fill-29" fill="#51E07D" points="194.557309 240.628099 176.857243 240.628099 185.092284 216.089785 186.001111 216.395603 178.189805 239.669421 193.858433 239.669421 201.452119 216.095537 202.36478 216.389851"></polygon>
                <polygon id="Fill-30" fill="#51E07D" points="134.624902 179.274645 133.666225 179.27081 134.214588 24.9237025 135.173266 24.9275372"></polygon>
                <polygon id="Fill-31" fill="#51E07D" points="280.343911 179.274645 279.385233 179.27081 279.933597 24.9237025 280.892274 24.9275372"></polygon>
                <path d="M122.710744,59.4380165 L145.719008,59.4380165 L145.719008,51.6180826 L139.819306,49.3431405 L134.214876,51.768595 L122.710744,51.768595 L122.710744,59.4380165 Z M146.677686,60.3966942 L121.752066,60.3966942 L121.752066,50.8099174 L134.114215,50.8099174 L139.795339,48.3058512 L146.677686,50.9604298 L146.677686,60.3966942 Z" id="Fill-32" fill="#51E07D"></path>
                <polygon id="Fill-33" fill="#51E07D" points="139.966942 59.4380165 140.92562 59.4380165 140.92562 48.8916033 139.966942 48.8916033"></polygon>
                <path d="M91.4825851,48.1632959 C84.8494942,48.1632959 79.4521388,53.6939074 79.4521388,60.4909322 C79.4521388,67.2889157 84.8494942,72.820486 91.4825851,72.820486 C98.115676,72.820486 103.513031,67.2889157 103.513031,60.4909322 C103.513031,53.6939074 98.115676,48.1632959 91.4825851,48.1632959 Z M91.4825851,73.7791636 C84.3203041,73.7791636 78.4934612,67.8181058 78.4934612,60.4909322 C78.4934612,53.165676 84.3203041,47.2046182 91.4825851,47.2046182 C98.6448661,47.2046182 104.471709,53.165676 104.471709,60.4909322 C104.471709,67.8181058 98.6448661,73.7791636 91.4825851,73.7791636 Z" id="Fill-34" fill="#51E07D"></path>
                <path d="M182.622443,36.1301653 C175.989352,36.1301653 170.591997,41.6607769 170.591997,48.4578017 C170.591997,55.2557851 175.989352,60.7873554 182.622443,60.7873554 C189.255534,60.7873554 194.652889,55.2557851 194.652889,48.4578017 C194.652889,41.6607769 189.255534,36.1301653 182.622443,36.1301653 M182.622443,61.7460331 C175.460162,61.7460331 169.633319,55.7849752 169.633319,48.4578017 C169.633319,41.1315868 175.460162,35.1714876 182.622443,35.1714876 C189.784724,35.1714876 195.611567,41.1315868 195.611567,48.4578017 C195.611567,55.7849752 189.784724,61.7460331 182.622443,61.7460331" id="Fill-36" fill="#51E07D"></path>
                <path d="M255.481947,36.1301653 C248.848856,36.1301653 243.451501,41.6607769 243.451501,48.4578017 C243.451501,55.2557851 248.848856,60.7873554 255.481947,60.7873554 C262.115038,60.7873554 267.512393,55.2557851 267.512393,48.4578017 C267.512393,41.6607769 262.115038,36.1301653 255.481947,36.1301653 M255.481947,61.7460331 C248.319666,61.7460331 242.492823,55.7849752 242.492823,48.4578017 C242.492823,41.1315868 248.319666,35.1714876 255.481947,35.1714876 C262.644228,35.1714876 268.471071,41.1315868 268.471071,48.4578017 C268.471071,55.7849752 262.644228,61.7460331 255.481947,61.7460331" id="Fill-38" fill="#51E07D"></path>
                <path d="M182.622443,84.1417983 C175.989352,84.1417983 170.591997,89.6724099 170.591997,96.4694347 C170.591997,103.267418 175.989352,108.798988 182.622443,108.798988 C189.255534,108.798988 194.652889,103.267418 194.652889,96.4694347 C194.652889,89.6724099 189.255534,84.1417983 182.622443,84.1417983 M182.622443,109.757666 C175.460162,109.757666 169.633319,103.796608 169.633319,96.4694347 C169.633319,89.1441785 175.460162,83.1831207 182.622443,83.1831207 C189.784724,83.1831207 195.611567,89.1441785 195.611567,96.4694347 C195.611567,103.796608 189.784724,109.757666 182.622443,109.757666" id="Fill-40" fill="#51E07D"></path>
                <path d="M182.622443,131.755484 C175.989352,131.755484 170.591997,137.287055 170.591997,144.084079 C170.591997,150.882063 175.989352,156.412674 182.622443,156.412674 C189.255534,156.412674 194.652889,150.882063 194.652889,144.084079 C194.652889,137.287055 189.255534,131.755484 182.622443,131.755484 M182.622443,157.371352 C175.460162,157.371352 169.633319,151.411253 169.633319,144.084079 C169.633319,136.757864 175.460162,130.796807 182.622443,130.796807 C189.784724,130.796807 195.611567,136.757864 195.611567,144.084079 C195.611567,151.411253 189.784724,157.371352 182.622443,157.371352" id="Fill-42" fill="#51E07D"></path>
                <path d="M219.052195,84.1417983 C212.419104,84.1417983 207.021749,89.6724099 207.021749,96.4694347 C207.021749,103.267418 212.419104,108.798988 219.052195,108.798988 C225.685286,108.798988 231.082641,103.267418 231.082641,96.4694347 C231.082641,89.6724099 225.685286,84.1417983 219.052195,84.1417983 M219.052195,109.757666 C211.889914,109.757666 206.063071,103.796608 206.063071,96.4694347 C206.063071,89.1441785 211.889914,83.1831207 219.052195,83.1831207 C226.214476,83.1831207 232.041319,89.1441785 232.041319,96.4694347 C232.041319,103.796608 226.214476,109.757666 219.052195,109.757666" id="Fill-44" fill="#51E07D"></path>
                <path d="M219.052195,131.755484 C212.419104,131.755484 207.021749,137.287055 207.021749,144.084079 C207.021749,150.882063 212.419104,156.412674 219.052195,156.412674 C225.685286,156.412674 231.082641,150.882063 231.082641,144.084079 C231.082641,137.287055 225.685286,131.755484 219.052195,131.755484 M219.052195,157.371352 C211.889914,157.371352 206.063071,151.411253 206.063071,144.084079 C206.063071,136.757864 211.889914,130.796807 219.052195,130.796807 C226.214476,130.796807 232.041319,136.757864 232.041319,144.084079 C232.041319,151.411253 226.214476,157.371352 219.052195,157.371352" id="Fill-46" fill="#51E07D"></path>
                <path d="M255.481947,84.1417983 C248.848856,84.1417983 243.451501,89.6724099 243.451501,96.4694347 C243.451501,103.267418 248.848856,108.798988 255.481947,108.798988 C262.115038,108.798988 267.512393,103.267418 267.512393,96.4694347 C267.512393,89.6724099 262.115038,84.1417983 255.481947,84.1417983 M255.481947,109.757666 C248.319666,109.757666 242.492823,103.796608 242.492823,96.4694347 C242.492823,89.1441785 248.319666,83.1831207 255.481947,83.1831207 C262.644228,83.1831207 268.471071,89.1441785 268.471071,96.4694347 C268.471071,103.796608 262.644228,109.757666 255.481947,109.757666" id="Fill-48" fill="#51E07D"></path>
                <path d="M255.481947,131.755484 C248.848856,131.755484 243.451501,137.287055 243.451501,144.084079 C243.451501,150.882063 248.848856,156.412674 255.481947,156.412674 C262.115038,156.412674 267.512393,150.882063 267.512393,144.084079 C267.512393,137.287055 262.115038,131.755484 255.481947,131.755484 M255.481947,157.371352 C248.319666,157.371352 242.492823,151.411253 242.492823,144.084079 C242.492823,136.757864 248.319666,130.796807 255.481947,130.796807 C262.644228,130.796807 268.471071,136.757864 268.471071,144.084079 C268.471071,151.411253 262.644228,157.371352 255.481947,157.371352" id="Fill-50" fill="#51E07D"></path>
                <path d="M305.333187,36.1301653 C298.700096,36.1301653 293.30274,41.6607769 293.30274,48.4578017 C293.30274,55.2557851 298.700096,60.7873554 305.333187,60.7873554 C311.966278,60.7873554 317.363633,55.2557851 317.363633,48.4578017 C317.363633,41.6607769 311.966278,36.1301653 305.333187,36.1301653 M305.333187,61.7460331 C298.170906,61.7460331 292.344063,55.7849752 292.344063,48.4578017 C292.344063,41.1315868 298.170906,35.1714876 305.333187,35.1714876 C312.495468,35.1714876 318.322311,41.1315868 318.322311,48.4578017 C318.322311,55.7849752 312.495468,61.7460331 305.333187,61.7460331" id="Fill-52" fill="#51E07D"></path>
                <path d="M305.333187,84.1417983 C298.700096,84.1417983 293.30274,89.6724099 293.30274,96.4694347 C293.30274,103.267418 298.700096,108.798988 305.333187,108.798988 C311.966278,108.798988 317.363633,103.267418 317.363633,96.4694347 C317.363633,89.6724099 311.966278,84.1417983 305.333187,84.1417983 M305.333187,109.757666 C298.170906,109.757666 292.344063,103.796608 292.344063,96.4694347 C292.344063,89.1441785 298.170906,83.1831207 305.333187,83.1831207 C312.495468,83.1831207 318.322311,89.1441785 318.322311,96.4694347 C318.322311,103.796608 312.495468,109.757666 305.333187,109.757666" id="Fill-54" fill="#51E07D"></path>
                <path d="M305.333187,131.755484 C298.700096,131.755484 293.30274,137.287055 293.30274,144.084079 C293.30274,150.882063 298.700096,156.412674 305.333187,156.412674 C311.966278,156.412674 317.363633,150.882063 317.363633,144.084079 C317.363633,137.287055 311.966278,131.755484 305.333187,131.755484 M305.333187,157.371352 C298.170906,157.371352 292.344063,151.411253 292.344063,144.084079 C292.344063,136.757864 298.170906,130.796807 305.333187,130.796807 C312.495468,130.796807 318.322311,136.757864 318.322311,144.084079 C318.322311,151.411253 312.495468,157.371352 305.333187,157.371352" id="Fill-56" fill="#51E07D"></path>
                <path d="M73.5579008,107.776367 C66.9248099,107.776367 61.5274545,113.306979 61.5274545,120.104003 C61.5274545,126.901987 66.9248099,132.433557 73.5579008,132.433557 C80.1909917,132.433557 85.5883471,126.901987 85.5883471,120.104003 C85.5883471,113.306979 80.1909917,107.776367 73.5579008,107.776367 M73.5579008,133.392235 C66.3956198,133.392235 60.5687769,127.431177 60.5687769,120.104003 C60.5687769,112.777788 66.3956198,106.817689 73.5579008,106.817689 C80.7201818,106.817689 86.5470248,112.777788 86.5470248,120.104003 C86.5470248,127.431177 80.7201818,133.392235 73.5579008,133.392235" id="Fill-58" fill="#51E07D"></path>
                <path d="M109.2836,107.776367 C102.650509,107.776367 97.2531537,113.306979 97.2531537,120.104003 C97.2531537,126.901987 102.650509,132.433557 109.2836,132.433557 C115.916691,132.433557 121.314046,126.901987 121.314046,120.104003 C121.314046,113.306979 115.916691,107.776367 109.2836,107.776367 M109.2836,133.392235 C102.121319,133.392235 96.294476,127.431177 96.294476,120.104003 C96.294476,112.777788 102.121319,106.817689 109.2836,106.817689 C116.445881,106.817689 122.272724,112.777788 122.272724,120.104003 C122.272724,127.431177 116.445881,133.392235 109.2836,133.392235" id="Fill-60" fill="#51E07D"></path>
                <path d="M149.403494,155.305785 L157.223428,155.305785 L157.223428,132.297521 L149.554007,132.297521 L149.512783,143.995306 L147.127593,149.406083 L149.403494,155.305785 Z M158.182106,156.264463 L148.744883,156.264463 L146.090304,149.381157 L148.595329,143.700992 L148.595329,131.338843 L158.182106,131.338843 L158.182106,156.264463 Z" id="Fill-62" fill="#51E07D"></path>
                <mask id="mask-2" fill="white">
                    <use xlink:href="#path-1"></use>
                </mask>
                <g id="Clip-65"></g>
                <polygon id="Fill-64" fill="#51E07D" mask="url(#mask-2)" points="146.677686 150.512397 158.181818 150.512397 158.181818 149.553719 146.677686 149.553719"></polygon>
                <polygon id="Fill-66" fill="#51E07D" mask="url(#mask-2)" points="329.785124 24.9256198 47.9866116 24.9256198 47.9396364 0 329.785124 0 329.785124 0.958677686 48.9002314 0.958677686 48.9433719 23.9669421 329.785124 23.9669421"></polygon>
                <polygon id="Fill-67" fill="#51E07D" mask="url(#mask-2)" points="47.8959207 180.232364 47.9409785 23.9669421 48.8996562 23.9669421 48.8545983 179.271769 328.655226 178.635207 328.657144 179.593884"></polygon>
                <polygon id="Fill-68" fill="#51E07D" mask="url(#mask-2)" points="0 347.041322 0.958677686 347.041322 0.958677686 335.057851 0 335.057851"></polygon>
                <polygon id="Fill-69" fill="#51E07D" mask="url(#mask-2)" points="328.656089 348 0.000287603306 348 0.0261719008 281.936562 33.2769488 184.215669 34.1838579 184.525322 0.958965289 282.170479 0.958965289 347.041322 328.656089 347.041322"></polygon>
                <polygon id="Fill-70" fill="#51E07D" mask="url(#mask-2)" points="34.1875008 184.513626 33.2729223 184.226982 47.9560298 137.427213 48.8706083 137.713858"></polygon>
                <polygon id="Fill-71" fill="#51E07D" mask="url(#mask-2)" points="0 282.809917 328.655802 282.809917 328.655802 281.85124 0 281.85124"></polygon>
            </g>
        </g>
    </g>
</svg>