<svg width="342" height="348" viewBox="0 0 342 348" xmlns="http://www.w3.org/2000/svg" xmlns:xlink="http://www.w3.org/1999/xlink"><defs><path id="a" d="M0 215.702h323.997V0H0z"/><path id="c" d="M0 215.702h323.997V0H0z"/><path id="e" d="M0 215.702h323.997V0H0z"/><path id="g" d="M0 215.702h323.997V0H0z"/><path id="i" d="M0 215.702h323.997V0H0z"/><path id="k" d="M0 215.702h323.997V0H0z"/><path id="m" d="M0 215.702h323.997V0H0z"/><path id="o" d="M0 215.702h323.997V0H0z"/><path id="q" d="M0 215.702h323.997V0H0z"/></defs><g fill="none" fill-rule="evenodd"><path fill="#141414" fill-rule="nonzero" d="M62.667 95.48L.48 282.386l.149 27.837h250.744L323.331 95.48z"/><path d="M62.321 95L.025 282.235l-.025.074.152 28.393H251.72l72.068-215.07.211-.632H62.321zM.96 282.462L63.013 95.959h259.652l-71.637 213.785H1.105l-.146-27.282z" fill="#141414" fill-rule="nonzero"/><path d="M76.755 118.967A5.76 5.76 0 0 0 71 124.719a5.76 5.76 0 0 0 5.756 5.752 5.76 5.76 0 0 0 5.757-5.752 5.76 5.76 0 0 0-5.757-5.752zm0 12.463c-3.702 0-6.716-3.011-6.716-6.711s3.014-6.71 6.716-6.71c3.703 0 6.716 3.01 6.716 6.71s-3.013 6.71-6.716 6.71zm52.769-18.215a5.76 5.76 0 0 0-5.756 5.752 5.76 5.76 0 0 0 5.756 5.752 5.76 5.76 0 0 0 5.757-5.752 5.76 5.76 0 0 0-5.757-5.752m0 12.463c-3.702 0-6.716-3.012-6.716-6.711 0-3.7 3.014-6.71 6.716-6.71 3.703 0 6.717 3.01 6.717 6.71s-3.014 6.71-6.717 6.71" fill="#FC4D2C" fill-rule="nonzero"/><path fill="#FC4D2C" fill-rule="nonzero" d="M251.373 310.702H.152L0 282.31l.024-.074L62.321 95h261.01v.959H63.013L.96 282.462l.146 27.282h250.268z"/><path d="M102.294 107.463h-.013l-32.079.374c-2.029 0-3.784 1.707-4.088 3.971l-20.46 62.836c-.083.732.237 1.632.898 2.382.763.863 1.836 1.379 2.873 1.379h30.407c1.921 0 3.432-1.307 4.756-4.113l20.481-63.015c.087-1.211-.225-2.267-.88-2.973a2.568 2.568 0 0 0-1.895-.841m-22.462 71.9H49.425c-1.308 0-2.65-.636-3.592-1.703-.845-.956-1.249-2.131-1.111-3.224l20.46-62.84c.35-2.653 2.512-4.718 5.015-4.718l32.077-.374c.98.04 1.927.404 2.618 1.148.851.917 1.252 2.252 1.13 3.758l-.023.109-20.52 63.125c-1.523 3.238-3.311 4.72-5.647 4.72m38.857-71.83c-2.356 0-3.454 1.032-3.918 3.677l-4.336 14.511c-.134 1.054.35 1.88.783 2.376.772.882 1.968 1.41 3.202 1.415l87.507-.252c2.731.037 4.295-1.266 4.97-4.014l4.24-13.947c.101-1.217-.188-2.265-.813-2.951-.526-.577-1.285-.883-2.195-.886l-89.416.07h-.024zm-4.268 22.937h-.003c-1.506-.005-2.972-.656-3.922-1.743-.795-.91-1.15-2.048-.997-3.206l4.34-14.531c.53-3.036 2.03-4.416 4.849-4.416h.027l89.416-.07c1.187.003 2.19.417 2.902 1.199.818.897 1.192 2.222 1.055 3.73l-.019.097-4.246 13.97c-.767 3.123-2.743 4.72-5.865 4.72h-.032l-87.505.25zm5.509 11.504a5.76 5.76 0 0 0-5.757 5.752 5.76 5.76 0 0 0 5.757 5.752 5.76 5.76 0 0 0 5.757-5.752 5.76 5.76 0 0 0-5.757-5.752m0 12.463c-3.702 0-6.716-3.011-6.716-6.71 0-3.7 3.014-6.711 6.716-6.711 3.703 0 6.716 3.01 6.716 6.71s-3.013 6.711-6.716 6.711" fill="#FC4D2C" fill-rule="nonzero"/><path d="M153.51 113.215a5.76 5.76 0 0 0-5.756 5.752 5.76 5.76 0 0 0 5.756 5.752 5.76 5.76 0 0 0 5.757-5.752 5.76 5.76 0 0 0-5.757-5.752m0 12.463c-3.702 0-6.716-3.012-6.716-6.711 0-3.7 3.014-6.71 6.716-6.71 3.703 0 6.717 3.01 6.717 6.71s-3.014 6.71-6.717 6.71m-9.594 16.298a5.76 5.76 0 0 0-5.757 5.752 5.76 5.76 0 0 0 5.757 5.752 5.76 5.76 0 0 0 5.757-5.752 5.76 5.76 0 0 0-5.757-5.752m0 12.463c-3.702 0-6.716-3.011-6.716-6.71 0-3.7 3.014-6.711 6.716-6.711 3.703 0 6.716 3.01 6.716 6.71s-3.013 6.711-6.716 6.711" fill="#FC4D2C" fill-rule="nonzero"/><path d="M109.68 136.438c-1.95 0-3.355.626-3.886 3.651l-4.31 14.42c-.132 1.046.349 1.868.78 2.36.764.875 1.953 1.399 3.178 1.403l103.02-.392h.032c1.83 0 3.633-.493 4.494-3.987l4.625-13.866c.1-1.206-.187-2.244-.809-2.925-.52-.572-1.274-.876-2.179-.88l-104.916.216h-.028zm-4.236 22.793h-.004c-1.497-.005-2.955-.652-3.9-1.731-.792-.906-1.144-2.038-.992-3.19l4.314-14.441c.525-3.018 2.017-4.39 4.82-4.39h.028l104.916-.215c1.183.004 2.181.416 2.89 1.194.812.892 1.185 2.21 1.048 3.71l-.022.108-4.633 13.883c-.792 3.225-2.467 4.68-5.42 4.68h-.027l-103.018.392zm-83.761 89.157h6.016l11.193-33.553h-6.015l-11.194 33.553zm6.706.96h-8.037l11.833-35.472h8.037L28.39 249.347zm9.074-.96h6.015l11.194-33.553h-6.015l-11.194 33.553zm6.706.96h-8.037l11.833-35.472h8.036L44.17 249.347zm77.654 33.229l-.907-.31 27.557-80.403.908.31zm-40.298.003l-.904-.318 11.513-32.595.905.319z" fill="#FC4D2C" fill-rule="nonzero"/><path fill="#FC4D2C" fill-rule="nonzero" d="M100.714 250.306h-16.77l15.715-48.77.913.294-15.312 47.517h14.764l16.067-47.817.91.305zM57.54 282.579l-.906-.315 11.198-32.26.907.316z"/><path fill="#FC4D2C" fill-rule="nonzero" d="M76.474 250.306H59.698l15.57-48.77.914.293-15.17 47.518h14.772l16.024-47.762.91.305zm30.96 32.264l-.912-.297 10.477-32.258.912.296zm30.703-.003l-.914-.29 10.278-32.26.914.291zm24.944.003l-.912-.297 10.554-32.595.912.296z"/><path fill="#FC4D2C" fill-rule="nonzero" d="M125.612 250.306h-17.715l16.383-48.776.91.305-15.959 47.512h15.681l15.414-47.811.912.294zm55.464 0h-16.78l16.495-48.777.908.307-16.068 47.511h14.755L196.4 201.69l.908.305zm-24.24 0H140.06l15.57-48.77.914.293-15.17 47.518h14.772l16.042-47.817.908.305zm46.539 32.271l-.906-.31 27.557-80.403.907.31zm-15.352.005l-.905-.32 11.437-32.26.905.321zm31.667-.015l-.915-.29 10.279-32.26.914.291zm24.944.003l-.912-.297 10.553-32.595.913.296z"/><path fill="#FC4D2C" fill-rule="nonzero" d="M207.164 250.306H189.45l16.384-48.776.91.305-15.96 47.512h15.682l15.413-47.811.913.294zm55.464 0h-16.78l16.495-48.777.909.307-16.069 47.511h14.755l16.014-47.658.909.305zm-24.24 0h-16.776l15.57-48.77.914.293-15.17 47.518h14.772l16.042-47.817.909.305z"/><g transform="translate(0 95)"><mask id="b" fill="#fff"><use xlink:href="#a"/></mask><path fill="#FC4D2C" fill-rule="nonzero" mask="url(#b)" d="M.96 187.9h39.337v-.958H.959z"/></g><g transform="translate(0 95)"><mask id="d" fill="#fff"><use xlink:href="#c"/></mask><path fill="#FC4D2C" fill-rule="nonzero" mask="url(#d)" d="M260.008 187.9H39.511l26.823-81.487h220.539v.959H67.028l-26.192 79.57h219.172z"/></g><g transform="translate(0 95)"><mask id="f" fill="#fff"><use xlink:href="#e"/></mask><path fill="#FC4D2C" fill-rule="nonzero" mask="url(#f)" d="M76.143 83.784l-.908-.305 24.01-71.604.908.305z"/></g><g transform="translate(0 95)"><mask id="h" fill="#fff"><use xlink:href="#g"/></mask><path d="M224.712 12.677c-1.95 0-3.356.627-3.886 3.652l-4.31 14.42c-.133 1.046.348 1.868.779 2.36.765.875 1.954 1.4 3.179 1.403l71.22-.392h.027c2.684 0 4.244-1.267 4.913-3.987l4.213-13.86c.1-1.21-.187-2.249-.808-2.931-.522-.572-1.275-.877-2.18-.88l-73.118.215h-.029zm-4.237 22.794h-.003c-1.497-.005-2.955-.652-3.9-1.732-.792-.906-1.144-2.038-.993-3.19l4.315-14.44c.525-3.019 2.017-4.39 4.82-4.39h.027l73.12-.215c1.182.004 2.18.416 2.887 1.192.814.893 1.186 2.211 1.05 3.711l-.02.096-4.22 13.884c-.773 3.148-2.684 4.692-5.833 4.692h-.03l-71.22.392z" fill="#FC4D2C" fill-rule="nonzero" mask="url(#h)"/></g><g transform="translate(0 95)"><mask id="j" fill="#fff"><use xlink:href="#i"/></mask><path d="M230.874 41.438c-1.955 0-3.361.626-3.892 3.654l-4.312 14.431c-.133 1.047.348 1.868.779 2.36.766.877 1.956 1.403 3.183 1.407l55.388.177h.016c2.55 0 4.49-1.705 5.192-4.56l4.653-13.878c.099-1.207-.187-2.245-.809-2.927-.522-.572-1.276-.876-2.18-.88l-57.99.216h-.028zm51.16 22.988h-.018l-55.388-.178c-1.497-.005-2.957-.653-3.902-1.734-.791-.905-1.144-2.04-.992-3.191l4.317-14.452c.525-3.02 2.017-4.392 4.824-4.392h.027l57.99-.215c1.183.004 2.182.416 2.889 1.194.815.892 1.188 2.211 1.05 3.713l-.022.109-4.66 13.893c-.95 3.863-3.78 5.253-6.115 5.253z" fill="#FC4D2C" fill-rule="nonzero" mask="url(#j)"/></g><g transform="translate(0 95)"><mask id="l" fill="#fff"><use xlink:href="#k"/></mask><path d="M228.955 72.622c-1.954 0-3.361.627-3.892 3.654l-4.312 14.431c-.133 1.048.348 1.869.779 2.361.766.877 1.956 1.402 3.183 1.406l46.753.177h.017c2.548 0 4.488-1.703 5.192-4.56l4.652-13.877c.099-1.207-.187-2.244-.809-2.927-.52-.572-1.275-.877-2.18-.88l-49.355.215h-.028zM271.48 95.61h-.018l-46.753-.177c-1.497-.005-2.957-.653-3.902-1.735-.791-.905-1.144-2.039-.992-3.191l4.317-14.451c.526-3.02 2.018-4.393 4.824-4.393h.027l49.354-.215c1.185.004 2.183.417 2.891 1.194.814.893 1.187 2.213 1.05 3.714l-.023.11-4.66 13.892c-.95 3.863-3.779 5.252-6.115 5.252z" fill="#FC4D2C" fill-rule="nonzero" mask="url(#l)"/></g><g transform="translate(0 95)"><mask id="n" fill="#fff"><use xlink:href="#m"/></mask><path d="M99.014 72.622c-1.953 0-3.36.627-3.891 3.654L90.81 90.707c-.131 1.048.35 1.87.78 2.361.767.876 1.955 1.401 3.18 1.406l45.538-.392h.026c2.687 0 4.25-1.269 4.919-3.99l4.216-13.871c.1-1.21-.187-2.25-.81-2.934-.521-.571-1.275-.877-2.18-.88l-47.437.215h-.028zm-4.242 22.81h-.003c-1.497-.004-2.956-.652-3.901-1.733-.793-.905-1.146-2.039-.993-3.192l4.316-14.451c.526-3.02 2.019-4.393 4.824-4.393h.027l47.437-.215c1.185.004 2.183.417 2.89 1.194.814.894 1.188 2.213 1.05 3.714l-.018.096-4.223 13.893c-.775 3.151-2.688 4.695-5.839 4.695h-.03l-45.537.393z" fill="#FC4D2C" fill-rule="nonzero" mask="url(#n)"/></g><g transform="translate(0 95)"><mask id="p" fill="#fff"><use xlink:href="#o"/></mask><path d="M163.231 72.622c-1.958 0-3.364.627-3.896 3.654l-4.313 14.431c-.131 1.048.35 1.87.78 2.361.767.877 1.957 1.402 3.183 1.406h.004l14.132.177h.017c2.24 0 4.849-1.408 5.624-4.56l4.216-13.87c.1-1.21-.186-2.25-.808-2.933-.522-.572-1.276-.878-2.182-.881l-16.729.215h-.028zm9.902 22.988h-.02l-14.135-.177c-1.496-.006-2.954-.654-3.898-1.734-.793-.905-1.145-2.039-.993-3.192l4.316-14.451c.527-3.02 2.02-4.393 4.825-4.393h.026l16.73-.215c1.189.004 2.188.418 2.896 1.195.813.893 1.186 2.212 1.048 3.714l-.018.095-4.223 13.893c-.893 3.63-3.933 5.265-6.554 5.265z" fill="#FC4D2C" fill-rule="nonzero" mask="url(#p)"/></g><g transform="translate(0 95)"><mask id="r" fill="#fff"><use xlink:href="#q"/></mask><path d="M196.338 72.622c-1.959 0-3.365.627-3.896 3.654l-4.312 14.431c-.133 1.048.349 1.869.779 2.361.766.877 1.956 1.402 3.183 1.406h.004l14.132.177h.017c2.545 0 4.484-1.703 5.188-4.56l4.652-13.877c.1-1.207-.187-2.244-.809-2.927-.52-.572-1.275-.877-2.18-.88l-16.73.215h-.028zm9.9 22.988h-.018l-14.135-.177c-1.496-.006-2.955-.654-3.899-1.735-.791-.905-1.143-2.039-.992-3.191l4.317-14.451c.526-3.02 2.017-4.393 4.824-4.393h.027l16.729-.215c1.19.004 2.187.417 2.895 1.194.814.893 1.187 2.213 1.05 3.714l-.023.11-4.66 13.892c-.95 3.863-3.779 5.252-6.115 5.252z" fill="#FC4D2C" fill-rule="nonzero" mask="url(#r)"/></g></g></svg>