<?xml version="1.0" encoding="UTF-8" standalone="no"?>
<svg width="325px" height="216px" viewBox="0 0 325 216" version="1.1" xmlns="http://www.w3.org/2000/svg" xmlns:xlink="http://www.w3.org/1999/xlink">
    <!-- Generator: Sketch 47.1 (45422) - http://www.bohemiancoding.com/sketch -->
    <title>pro-one art</title>
    <desc>Created with Sketch.</desc>
    <defs>
        <polygon id="path-1" points="0 215.702479 323.99732 215.702479 323.99732 0 0 0"></polygon>
    </defs>
    <g id="Symbols" stroke="none" stroke-width="1" fill="none" fill-rule="evenodd">
        <g id="pro-one-art">
            <g id="Page-1">
                <polygon id="Fill-1" fill="#141414" points="62.6673952 0.479722314 0.480295944 187.3864 0.629009231 215.222565 251.373043 215.222565 323.331085 0.479722314"></polygon>
                <path d="M62.3211331,0 L0.0246576224,187.234545 L-0.000287832168,187.309322 L0.152263217,215.702479 L251.718537,215.702479 L323.786915,0.631768595 L323.997992,0 L62.3211331,0 Z M0.959152727,187.461752 L63.0128898,0.958677686 L322.665329,0.958677686 L251.02774,214.743802 L1.10498769,214.743802 L0.959152727,187.461752 Z" id="Fill-2" fill="#141414"></path>
                <path d="M76.7552448,23.9669421 C73.5804559,23.9669421 70.9986014,26.5467438 70.9986014,29.7190083 C70.9986014,32.8912727 73.5804559,35.4710744 76.7552448,35.4710744 C79.9300336,35.4710744 82.5118881,32.8912727 82.5118881,29.7190083 C82.5118881,26.5467438 79.9300336,23.9669421 76.7552448,23.9669421 Z M76.7552448,36.4297521 C73.0527636,36.4297521 70.0391608,33.4185455 70.0391608,29.7190083 C70.0391608,26.0194711 73.0527636,23.0082645 76.7552448,23.0082645 C80.4577259,23.0082645 83.4713287,26.0194711 83.4713287,29.7190083 C83.4713287,33.4185455 80.4577259,36.4297521 76.7552448,36.4297521 Z" id="Fill-3" fill="#FC4D2C"></path>
                <path d="M129.524476,18.214876 C126.349687,18.214876 123.767832,20.7946777 123.767832,23.9669421 C123.767832,27.1392066 126.349687,29.7190083 129.524476,29.7190083 C132.699264,29.7190083 135.281119,27.1392066 135.281119,23.9669421 C135.281119,20.7946777 132.699264,18.214876 129.524476,18.214876 M129.524476,30.677686 C125.821994,30.677686 122.808392,27.6664793 122.808392,23.9669421 C122.808392,20.267405 125.821994,17.2561983 129.524476,17.2561983 C133.226957,17.2561983 136.240559,20.267405 136.240559,23.9669421 C136.240559,27.6664793 133.226957,30.677686 129.524476,30.677686" id="Fill-5" fill="#FC4D2C"></path>
                <polygon id="Fill-7" fill="#FC4D2C" points="251.373427 215.702479 0.151591608 215.702479 0 187.309322 0.023986014 187.234545 62.321421 0 323.331469 0 323.331469 0.958677686 63.0131776 0.958677686 0.959440559 187.461752 1.10527552 214.743802 251.373427 214.743802"></polygon>
                <path d="M102.293825,12.4628099 L102.281353,12.4628099 L70.2024576,12.8366942 C68.1732408,12.8366942 66.4184241,14.5440992 66.1142814,16.8084959 L45.6542115,79.6440661 C45.5707401,80.3764959 45.8911933,81.2757355 46.5522478,82.0263802 C47.3150031,82.8891901 48.3876576,83.4049587 49.4248129,83.4049587 L79.8323625,83.4049587 C81.7531625,83.4049587 83.2642814,82.098281 84.5883094,79.2922314 L105.069487,16.2773884 C105.155837,15.0656198 104.844018,14.0101157 104.188721,13.3035702 C103.685014,12.7619174 103.013406,12.4628099 102.293825,12.4628099 M79.8323625,84.3636364 L49.4248129,84.3636364 C48.1170954,84.3636364 46.774838,83.7270744 45.8326674,82.6600661 C44.9883597,81.7042645 44.5844352,80.5289256 44.7216352,79.4360331 L65.1826646,16.5966281 C65.531901,13.9430083 67.69448,11.8780165 70.196701,11.8780165 L102.273677,11.5041322 C103.253266,11.543438 104.201193,11.9077355 104.89199,12.6516694 C105.743014,13.569124 106.14406,14.9036033 106.021252,16.409686 L105.999185,16.5189752 L85.4786702,79.6440661 C83.956038,82.8815207 82.1676408,84.3636364 79.8323625,84.3636364" id="Fill-9" fill="#FC4D2C"></path>
                <path d="M118.68865,12.5339438 C116.333223,12.5339438 115.234664,13.5664397 114.771254,16.2114314 L110.434583,30.7219769 C110.30122,31.7755636 110.785738,32.6029025 111.218446,33.0975802 C111.989836,33.9795636 113.186258,34.5087537 114.420099,34.5125884 L201.926834,34.2614149 C204.658362,34.2978446 206.22225,32.9950017 206.897696,30.2474314 L211.136504,16.2996298 C211.238205,15.0830678 210.949413,14.0352331 210.323858,13.3488198 C209.798085,12.7716959 209.039167,12.4658777 208.128658,12.4630017 L118.712636,12.5339438 L118.68865,12.5339438 Z M114.421058,35.4712661 L114.41818,35.4712661 C112.911858,35.4664727 111.445833,34.8145719 110.495987,33.7283901 C109.700611,32.818605 109.346577,31.6796959 109.499128,30.5216132 L113.838678,15.9909355 C114.368289,12.9548033 115.868854,11.5752661 118.68769,11.5752661 L118.714555,11.5752661 L208.130577,11.504324 C209.318364,11.5081587 210.321939,11.9223074 211.032885,12.7036298 C211.851288,13.6009521 212.225469,14.9258446 212.088269,16.4348033 L212.069081,16.5306711 L207.822597,30.5005223 C207.056004,33.6238942 205.079556,35.2200926 201.957537,35.2200926 L201.925875,35.2200926 L114.421058,35.4712661 Z" id="Fill-11" fill="#FC4D2C"></path>
                <path d="M119.93007,46.9752066 C116.755281,46.9752066 114.173427,49.5550083 114.173427,52.7272727 C114.173427,55.8995372 116.755281,58.4793388 119.93007,58.4793388 C123.104859,58.4793388 125.686713,55.8995372 125.686713,52.7272727 C125.686713,49.5550083 123.104859,46.9752066 119.93007,46.9752066 M119.93007,59.4380165 C116.227589,59.4380165 113.213986,56.4268099 113.213986,52.7272727 C113.213986,49.0277355 116.227589,46.0165289 119.93007,46.0165289 C123.632551,46.0165289 126.646154,49.0277355 126.646154,52.7272727 C126.646154,56.4268099 123.632551,59.4380165 119.93007,59.4380165" id="Fill-13" fill="#FC4D2C"></path>
                <path d="M153.51049,18.214876 C150.335701,18.214876 147.753846,20.7946777 147.753846,23.9669421 C147.753846,27.1392066 150.335701,29.7190083 153.51049,29.7190083 C156.685278,29.7190083 159.267133,27.1392066 159.267133,23.9669421 C159.267133,20.7946777 156.685278,18.214876 153.51049,18.214876 M153.51049,30.677686 C149.808008,30.677686 146.794406,27.6664793 146.794406,23.9669421 C146.794406,20.267405 149.808008,17.2561983 153.51049,17.2561983 C157.212971,17.2561983 160.226573,20.267405 160.226573,23.9669421 C160.226573,27.6664793 157.212971,30.677686 153.51049,30.677686" id="Fill-15" fill="#FC4D2C"></path>
                <path d="M143.916084,46.9752066 C140.741295,46.9752066 138.159441,49.5550083 138.159441,52.7272727 C138.159441,55.8995372 140.741295,58.4793388 143.916084,58.4793388 C147.090873,58.4793388 149.672727,55.8995372 149.672727,52.7272727 C149.672727,49.5550083 147.090873,46.9752066 143.916084,46.9752066 M143.916084,59.4380165 C140.213603,59.4380165 137.2,56.4268099 137.2,52.7272727 C137.2,49.0277355 140.213603,46.0165289 143.916084,46.0165289 C147.618565,46.0165289 150.632168,49.0277355 150.632168,52.7272727 C150.632168,56.4268099 147.618565,59.4380165 143.916084,59.4380165" id="Fill-17" fill="#FC4D2C"></path>
                <path d="M109.68075,41.4375008 C107.730208,41.4375008 106.324627,42.064476 105.794057,45.0891041 L101.48425,59.5095339 C101.351847,60.5554512 101.832526,61.377038 102.263315,61.8688397 C103.027989,62.7441124 104.216736,63.2675504 105.441942,63.2723438 L208.461872,62.8802446 L208.493533,62.8802446 C210.323187,62.8802446 212.126935,62.3874843 212.987553,58.8931041 L217.613016,45.0267901 C217.712798,43.8207736 217.425925,42.7834843 216.804208,42.1018645 C216.283231,41.5304926 215.53007,41.2256331 214.625318,41.222757 L109.708574,41.4375008 L109.68075,41.4375008 Z M105.443861,64.2310215 L105.440023,64.2310215 C103.943296,64.2262281 102.484946,63.5791207 101.540857,62.4996496 C100.748359,61.5936992 100.396244,60.4615008 100.547836,59.3091702 L104.86244,44.8686083 C105.387254,41.8506909 106.879184,40.4788231 109.682669,40.4788231 L109.709533,40.4788231 L214.626277,40.2640793 C215.809268,40.267914 216.807086,40.6801455 217.515153,41.4576331 C218.327799,42.350162 218.701022,43.6673851 218.563822,45.1677157 L218.541754,45.2760463 L213.908616,59.1586579 C213.117077,62.3836496 211.441894,63.8389223 208.489696,63.8389223 L208.461872,63.8389223 L105.443861,64.2310215 Z" id="Fill-19" fill="#FC4D2C"></path>
                <path d="M21.6829729,153.38843 L27.6986652,153.38843 L38.8924582,119.834711 L32.8767659,119.834711 L21.6829729,153.38843 Z M28.3894624,154.347107 L20.3522288,154.347107 L32.1850092,118.876033 L40.2222428,118.876033 L28.3894624,154.347107 Z" id="Fill-21" fill="#FC4D2C"></path>
                <path d="M37.4631796,153.38843 L43.4779124,153.38843 L54.6717055,119.834711 L48.6569726,119.834711 L37.4631796,153.38843 Z M44.1687097,154.347107 L36.1324355,154.347107 L47.9652159,118.876033 L56.0014901,118.876033 L44.1687097,154.347107 Z" id="Fill-23" fill="#FC4D2C"></path>
                <polygon id="Fill-25" fill="#FC4D2C" points="121.822758 187.576889 120.916087 187.266278 148.473139 106.863898 149.38077 107.174509"></polygon>
                <polygon id="Fill-27" fill="#FC4D2C" points="81.5252954 187.580628 80.6205429 187.262347 92.1338297 154.667306 93.0385821 154.985587"></polygon>
                <polygon id="Fill-29" fill="#FC4D2C" points="100.714107 155.305785 83.9430856 155.305785 99.658722 106.535934 100.572109 106.830248 85.2603975 154.347107 100.024269 154.347107 116.09106 106.530182 117.00061 106.835041"></polygon>
                <polygon id="Fill-31" fill="#FC4D2C" points="57.5402408 187.578807 56.6335695 187.26436 67.8321597 155.004856 68.738831 155.320261"></polygon>
                <polygon id="Fill-33" fill="#FC4D2C" points="76.4741287 155.305785 59.6983105 155.305785 75.2681119 106.536893 76.1824587 106.829289 61.0117846 154.347107 75.7842909 154.347107 91.8079077 106.584826 92.7174573 106.889686"></polygon>
                <polygon id="Fill-35" fill="#FC4D2C" points="107.433932 187.569412 106.521504 187.27318 116.998595 155.014635 117.911023 155.310866"></polygon>
                <polygon id="Fill-37" fill="#FC4D2C" points="138.13699 187.566631 137.222643 187.276152 147.50113 155.017607 148.415476 155.308086"></polygon>
                <polygon id="Fill-39" fill="#FC4D2C" points="163.081485 187.569412 162.169057 187.27318 172.722903 154.678139 173.635331 154.97437"></polygon>
                <polygon id="Fill-41" fill="#FC4D2C" points="125.611781 155.305785 107.89667 155.305785 124.280077 106.530182 125.189627 106.835041 109.231252 154.347107 124.912349 154.347107 140.325761 106.535934 141.238189 106.830248"></polygon>
                <polygon id="Fill-43" fill="#FC4D2C" points="181.075697 155.305785 164.295081 155.305785 180.790743 106.529223 181.699333 106.836 165.630622 154.347107 180.385859 154.347107 196.399881 106.689322 197.308471 106.994182"></polygon>
                <polygon id="Fill-45" fill="#FC4D2C" points="156.835719 155.305785 140.0599 155.305785 155.629702 106.536893 156.544049 106.829289 141.373375 154.347107 156.145881 154.347107 172.187727 106.530182 173.096317 106.835041"></polygon>
                <polygon id="Fill-47" fill="#FC4D2C" points="203.375206 187.576889 202.468535 187.266278 230.025586 106.863898 230.933217 107.174509"></polygon>
                <polygon id="Fill-49" fill="#FC4D2C" points="188.023197 187.581587 187.118445 187.261388 198.554977 155.002843 199.459729 155.323041"></polygon>
                <polygon id="Fill-51" fill="#FC4D2C" points="219.689437 187.566631 218.77509 187.276152 229.053577 155.017607 229.967924 155.308086"></polygon>
                <polygon id="Fill-53" fill="#FC4D2C" points="244.633932 187.569412 243.721504 187.27318 254.27535 154.678139 255.187778 154.97437"></polygon>
                <polygon id="Fill-55" fill="#FC4D2C" points="207.164229 155.305785 189.449118 155.305785 205.832525 106.530182 206.742075 106.835041 190.7837 154.347107 206.464796 154.347107 221.878209 106.535934 222.790637 106.830248"></polygon>
                <polygon id="Fill-57" fill="#FC4D2C" points="262.628144 155.305785 245.847529 155.305785 262.34319 106.529223 263.25178 106.836 247.18307 154.347107 261.938306 154.347107 277.952329 106.689322 278.860919 106.994182"></polygon>
                <polygon id="Fill-59" fill="#FC4D2C" points="238.388166 155.305785 221.612348 155.305785 237.182149 106.536893 238.096496 106.829289 222.925822 154.347107 237.698328 154.347107 253.740175 106.530182 254.648765 106.835041"></polygon>
                <mask id="mask-2" fill="white">
                    <use xlink:href="#path-1"></use>
                </mask>
                <g id="Clip-62"></g>
                <polygon id="Fill-61" fill="#FC4D2C" mask="url(#mask-2)" points="0.959440559 187.900826 40.2965035 187.900826 40.2965035 186.942149 0.959440559 186.942149"></polygon>
                <polygon id="Fill-63" fill="#FC4D2C" mask="url(#mask-2)" points="260.008392 187.900826 39.5107217 187.900826 66.3338014 106.413223 286.872727 106.413223 286.872727 107.371901 67.0284364 107.371901 40.8357091 186.942149 260.008392 186.942149"></polygon>
                <polygon id="Fill-64" fill="#FC4D2C" mask="url(#mask-2)" points="76.1434095 83.7841157 75.2348193 83.4792562 99.2448193 11.8746612 100.15341 12.1804793"></polygon>
                <path d="M224.712396,12.6771702 C222.761854,12.6771702 221.356273,13.3041455 220.825703,16.3287736 L216.515896,30.7492033 C216.383493,31.7951207 216.864173,32.6167074 217.294961,33.1085091 C218.059636,33.9837818 219.249342,34.5081785 220.473588,34.5120132 L291.69382,34.119914 L291.720684,34.119914 C294.405199,34.119914 295.96525,32.8525421 296.63398,30.1327736 L300.846883,16.2722116 C300.946665,15.063319 300.659792,14.0241124 300.039034,13.3415339 C299.517098,12.770162 298.763938,12.4653025 297.859185,12.4624264 L224.74118,12.6771702 L224.712396,12.6771702 Z M220.474547,35.4706909 L220.471669,35.4706909 C218.974942,35.4658975 217.516592,34.8187901 216.572503,33.739319 C215.780005,32.8333686 215.42789,31.7011702 215.579482,30.5488397 L219.894086,16.1082777 C220.4189,13.0903603 221.91083,11.7184926 224.714315,11.7184926 L224.74118,11.7184926 L297.860145,11.5037488 C299.043135,11.5075835 300.040953,11.9198149 300.748061,12.6963438 C301.561666,13.5888727 301.933929,14.9070545 301.797689,16.4073851 L301.7785,16.5032529 L297.55888,30.3868231 C296.784612,33.5351207 294.874366,35.0785917 291.725482,35.0785917 L291.69478,35.0785917 L220.474547,35.4706909 Z" id="Fill-65" fill="#FC4D2C" mask="url(#mask-2)"></path>
                <path d="M230.873828,41.4375008 C228.919447,41.4375008 227.512907,42.064476 226.982337,45.0919802 L222.669651,59.5229554 C222.537249,60.5698314 223.017928,61.3914182 223.448717,61.8832198 C224.21531,62.7604099 225.405017,63.2857653 226.632141,63.2896 L282.019685,63.4669554 L282.035996,63.4669554 C284.585229,63.4669554 286.525218,61.7624264 287.228488,58.9065256 L291.880815,45.0287074 C291.979637,43.8217322 291.693724,42.784443 291.072007,42.1018645 C290.550071,41.5304926 289.795951,41.2256331 288.891198,41.222757 L230.901651,41.4375008 L230.873828,41.4375008 Z M282.034077,64.4256331 L282.015847,64.4256331 L226.628303,64.2482777 C225.130617,64.2434843 223.671307,63.5954182 222.726258,62.5140298 C221.93472,61.609038 221.581646,60.4749223 221.734197,59.3225917 L226.05072,44.8714843 C226.576493,41.8516496 228.068423,40.4788231 230.874787,40.4788231 L230.901651,40.4788231 L288.891198,40.2640793 C290.075148,40.267914 291.073926,40.6801455 291.781033,41.4576331 C292.595598,42.350162 292.968821,43.6693025 292.831621,45.1705917 L292.808594,45.279881 L288.148591,59.173038 C287.199705,63.0355504 284.369355,64.4256331 282.034077,64.4256331 L282.034077,64.4256331 Z" id="Fill-66" fill="#FC4D2C" mask="url(#mask-2)"></path>
                <path d="M228.954947,72.6217521 C227.000566,72.6217521 225.594026,73.2487273 225.063456,76.2762314 L220.75077,90.7072066 C220.618368,91.7550413 221.099047,92.5756694 221.529836,93.0684298 C222.296429,93.9446612 223.486135,94.4700165 224.71326,94.4738512 L271.465839,94.6512066 L271.483109,94.6512066 C274.031383,94.6512066 275.971372,92.9476364 276.674642,90.0917355 L281.326969,76.2139174 C281.425791,75.0069421 281.139878,73.9696529 280.518161,73.2870744 C279.997184,72.7147438 279.243064,72.4098843 278.337352,72.4070083 L228.98277,72.6217521 L228.954947,72.6217521 Z M271.48023,95.6098843 L271.462001,95.6098843 L224.709422,95.4325289 C223.211735,95.4277355 221.752426,94.7796694 220.807377,93.698281 C220.015839,92.7932893 219.662765,91.6591736 219.815316,90.506843 L224.131839,76.0557355 C224.657612,73.0359008 226.149542,71.6630744 228.955906,71.6630744 L228.98277,71.6630744 L278.337352,71.4483306 C279.522261,71.4521653 280.520079,71.8653554 281.228147,72.6418843 C282.041752,73.5353719 282.414975,74.8545124 282.277775,76.3558017 L282.254748,76.4650909 L277.594745,90.3582479 C276.645858,94.2207603 273.816468,95.6098843 271.48023,95.6098843 L271.48023,95.6098843 Z" id="Fill-67" fill="#FC4D2C" mask="url(#mask-2)"></path>
                <path d="M99.0144576,72.6217521 C97.0610366,72.6217521 95.6544968,73.2487273 95.1229667,76.2762314 L90.8102814,90.7072066 C90.678838,91.7550413 91.1595178,92.5766281 91.5903066,93.0684298 C92.3568996,93.9437025 93.544687,94.4690579 94.7698926,94.4738512 L140.30782,94.0817521 L140.333725,94.0817521 C143.021118,94.0817521 144.583087,92.8134215 145.252777,90.0917355 L149.468558,76.2206281 C149.56834,75.0107769 149.282427,73.9706116 148.65975,73.2870744 C148.137814,72.7157025 147.383694,72.4098843 146.478942,72.4070083 L99.0422814,72.6217521 L99.0144576,72.6217521 Z M94.7718115,95.4325289 L94.7689331,95.4325289 C93.2722059,95.4277355 91.8128968,94.7796694 90.8678478,93.6992397 C90.0753499,92.7942479 89.7222758,91.6601322 89.8748269,90.506843 L94.1913499,76.0557355 C94.7171234,73.0359008 96.2100129,71.6630744 99.0154171,71.6630744 L99.0422814,71.6630744 L146.478942,71.4483306 C147.663851,71.4521653 148.661669,71.8653554 149.368777,72.6418843 C150.183342,73.5363306 150.556564,74.8545124 150.419364,76.3558017 L150.401135,76.4516694 L146.177677,90.3448264 C145.403409,93.496 143.490284,95.0404298 140.339481,95.0404298 L140.309739,95.0404298 L94.7718115,95.4325289 Z" id="Fill-68" fill="#FC4D2C" mask="url(#mask-2)"></path>
                <path d="M163.231349,72.6217521 C161.273131,72.6217521 159.866591,73.2487273 159.335061,76.2762314 L155.022376,90.7072066 C154.890933,91.7550413 155.372572,92.5766281 155.802401,93.0684298 C156.568994,93.9446612 157.7587,94.4700165 158.984865,94.4738512 L158.988703,94.4738512 L173.121263,94.6512066 L173.137573,94.6512066 C175.378826,94.6512066 177.986586,93.2429091 178.761814,90.0917355 L182.977596,76.2206281 C183.078337,75.0117355 182.792423,73.9715702 182.169747,73.2880331 C181.647811,72.7157025 180.893691,72.4098843 179.987979,72.4070083 L163.259173,72.6217521 L163.231349,72.6217521 Z M173.132776,95.6098843 L173.113587,95.6098843 L158.978149,95.4325289 C157.482382,95.4267769 156.024032,94.7787107 155.079942,93.6992397 C154.287444,92.7942479 153.93533,91.6601322 154.086921,90.506843 L158.403444,76.0557355 C158.930177,73.0359008 160.422107,71.6630744 163.227512,71.6630744 L163.254376,71.6630744 L179.983182,71.4483306 C181.172888,71.4521653 182.171665,71.866314 182.879733,72.642843 C183.693338,73.5363306 184.065601,74.8554711 183.928401,76.3567603 L183.910172,76.4516694 L179.686714,90.3448264 C178.794435,93.9753388 175.753968,95.6098843 173.132776,95.6098843 L173.132776,95.6098843 Z" id="Fill-69" fill="#FC4D2C" mask="url(#mask-2)"></path>
                <path d="M196.337709,72.6217521 C194.379491,72.6217521 192.972951,73.2487273 192.442381,76.2762314 L188.129695,90.7072066 C187.997293,91.7550413 188.478932,92.5756694 188.908761,93.0684298 C189.675354,93.9446612 190.86506,94.4700165 192.092185,94.4738512 L192.096023,94.4738512 L206.227623,94.6512066 L206.244893,94.6512066 C208.790288,94.6512066 210.729318,92.9476364 211.432588,90.0917355 L216.084915,76.2139174 C216.184697,75.0069421 215.897824,73.9696529 215.276107,73.2870744 C214.75513,72.7147438 214.00101,72.4098843 213.095298,72.4070083 L196.366493,72.6217521 L196.337709,72.6217521 Z M206.238177,95.6098843 L206.219947,95.6098843 L192.085469,95.4325289 C190.588742,95.4267769 189.130392,94.7787107 188.186302,93.698281 C187.394764,92.7932893 187.042649,91.6591736 187.194241,90.506843 L191.510764,76.0557355 C192.036537,73.0359008 193.528467,71.6630744 196.334831,71.6630744 L196.361695,71.6630744 L213.090501,71.4483306 C214.280207,71.4521653 215.278025,71.8653554 215.986093,72.6418843 C216.799698,73.5353719 217.172921,74.8545124 217.035721,76.3558017 L217.012694,76.4650909 L212.352691,90.3582479 C211.403804,94.2207603 208.574414,95.6098843 206.238177,95.6098843 L206.238177,95.6098843 Z" id="Fill-70" fill="#FC4D2C" mask="url(#mask-2)"></path>
            </g>
        </g>
    </g>
</svg>