<svg width="342" height="348" viewBox="0 0 342 348" xmlns="http://www.w3.org/2000/svg" xmlns:xlink="http://www.w3.org/1999/xlink"><defs><path id="a" d="M0 276.1h341.268V0H0z"/><path id="c" d="M0 276.1h341.268V0H0z"/><path id="e" d="M0 276.1h341.268V0H0z"/><path id="g" d="M0 276.1h341.268V0H0z"/><path id="i" d="M0 276.1h341.268V0H0z"/><path id="k" d="M0 276.1h341.268V0H0z"/><path id="m" d="M0 276.1h341.268V0H0z"/><path id="o" d="M0 276.1h341.268V0H0z"/><path id="q" d="M0 276.1h341.268V0H0z"/><path id="s" d="M0 276.1h341.268V0H0z"/><path id="u" d="M0 276.1h341.268V0H0z"/><path id="w" d="M0 276.1h341.268V0H0z"/><path id="y" d="M0 276.1h341.268V0H0z"/><path id="A" d="M0 276.1h341.268V0H0z"/><path id="C" d="M0 276.1h341.268V0H0z"/><path id="E" d="M0 276.1h341.268V0H0z"/><path id="G" d="M0 276.1h341.268V0H0z"/><path id="I" d="M0 276.1h341.268V0H0z"/></defs><g fill="none" fill-rule="evenodd"><path fill="#141414" fill-rule="nonzero" d="M80.267 43.48L.481 282.63l.388 35.99h247.627l92.107-275.14z"/><path d="M79.92 43L.026 282.477l-.025.077.394 36.545h248.448l92.216-275.468.21-.631H79.922zM.96 282.704L80.614 43.959h259.323L248.15 318.14H1.344L.96 282.704z" fill="#141414" fill-rule="nonzero"/><path fill="#B226FB" fill-rule="nonzero" d="M260.01 282.773L.96 282.67v-.959l259.05.104z"/><path fill="#B226FB" fill-rule="nonzero" d="M81.69 282.641l-.911-.299 35.577-107.773.91.299zm82.15.103l-.911-.299 35.513-107.58.911.3zm81.552 0l-.91-.299 35.512-107.58.912.3z"/><path fill="#B226FB" fill-rule="nonzero" d="M36.46 175.298h259.049v-.96H36.459zm86.277 107.351l-.905-.315 13.478-38.649.904.316z"/><path fill="#B226FB" fill-rule="nonzero" d="M143.81 244.322h-16.773l22.66-69.651.913.295-22.252 68.398h14.76l22.89-68.697.911.303zM98.696 282.65l-.905-.317 13.533-38.649.905.318z"/><path fill="#B226FB" fill-rule="nonzero" d="M119.57 244.322h-16.782l22.924-69.653.911.299-22.51 68.396h14.767l23.143-68.698.91.305zm28.296 38.325l-.906-.31 13.294-38.65.906.312z"/><path fill="#B226FB" fill-rule="nonzero" d="M168.703 244.322H150.99l.215-.633 23.44-69.025.909.309-23.226 68.39h15.683l22.943-68.696.911.303zm35.587 38.327l-.905-.315 13.477-38.649.905.316z"/><path fill="#B226FB" fill-rule="nonzero" d="M225.363 244.322H208.59l22.66-69.651.912.295-22.251 68.398h14.76l22.89-68.697.91.303zm-45.115 38.328l-.904-.317 13.533-38.649.904.318z"/><path fill="#B226FB" fill-rule="nonzero" d="M201.123 244.322H184.34l22.924-69.653.912.299-22.51 68.396h14.767l23.143-68.698.91.305zm28.296 38.325l-.907-.31 13.294-38.65.907.312z"/><path fill="#B226FB" fill-rule="nonzero" d="M250.256 244.322h-17.714l.215-.633 23.44-69.025.91.309-23.226 68.39h15.683l22.942-68.696.912.303zM66.504 162.835h14.214l3.61-10.546H69.74l-3.236 10.546zm14.9.958h-16.2l3.826-12.462h16.64l-4.266 12.462zm65.693-.958h14.214l3.61-10.546h-14.588l-3.236 10.546zm14.9.958h-16.2l3.826-12.462h16.64l-4.266 12.462zm9.086-.958h14.214l3.61-10.546H174.32l-3.236 10.546zm14.9.958h-16.2l3.826-12.462h16.64l-4.266 12.462zm-40.627-59.438c-4.497 0-8.155 3.656-8.155 8.15 0 4.492 3.658 8.148 8.155 8.148s8.155-3.656 8.155-8.149c0-4.493-3.658-8.149-8.155-8.149zm0 17.257c-5.025 0-9.114-4.086-9.114-9.108 0-5.021 4.089-9.107 9.114-9.107 5.026 0 9.115 4.086 9.115 9.107 0 5.022-4.09 9.108-9.115 9.108zm56.607-17.257c-4.497 0-8.155 3.656-8.155 8.15 0 4.492 3.658 8.148 8.155 8.148s8.155-3.656 8.155-8.149c0-4.493-3.658-8.149-8.155-8.149m0 17.257c-5.025 0-9.114-4.086-9.114-9.108 0-5.021 4.089-9.107 9.114-9.107 5.026 0 9.115 4.086 9.115 9.107 0 5.022-4.09 9.108-9.115 9.108"/><g transform="translate(0 43)"><mask id="b" fill="#fff"><use xlink:href="#a"/></mask><path fill="#B226FB" fill-rule="nonzero" mask="url(#b)" d="M80.594 24.926h251.373v-.96H80.594z"/></g><g transform="translate(0 43)"><mask id="d" fill="#fff"><use xlink:href="#c"/></mask><path fill="#B226FB" fill-rule="nonzero" mask="url(#d)" d="M98.072 96.302l-.913-.294 23.185-71.72.913.294z"/></g><g transform="translate(0 43)"><mask id="f" fill="#fff"><use xlink:href="#e"/></mask><path fill="#B226FB" fill-rule="nonzero" mask="url(#f)" d="M154.279 96.642l-.91-.301 23.908-72.057.91.302z"/></g><g transform="translate(0 43)"><mask id="h" fill="#fff"><use xlink:href="#g"/></mask><path fill="#B226FB" fill-rule="nonzero" mask="url(#h)" d="M307.022 96.826H55.456L84.57 12.463h251.235v.958H85.253L56.801 95.868h250.22z"/></g><g transform="translate(0 43)"><mask id="j" fill="#fff"><use xlink:href="#i"/></mask><path d="M110.274 83.405h5.939l11.513-34.512h-5.938l-11.514 34.512zm6.63.959h-7.961l12.153-36.43h7.96l-12.152 36.43z" fill="#B226FB" fill-rule="nonzero" mask="url(#j)"/></g><g transform="translate(0 43)"><mask id="l" fill="#fff"><use xlink:href="#k"/></mask><path d="M167.138 83.405h5.938l11.515-34.512h-5.94l-11.513 34.512zm6.63.959h-7.96l12.152-36.43h7.961l-12.153 36.43z" fill="#B226FB" fill-rule="nonzero" mask="url(#l)"/></g><g transform="translate(0 43)"><mask id="n" fill="#fff"><use xlink:href="#m"/></mask><path fill="#B226FB" fill-rule="nonzero" mask="url(#n)" d="M228.156 96.642l-.91-.301 23.908-72.057.91.302z"/></g><g transform="translate(0 43)"><mask id="p" fill="#fff"><use xlink:href="#o"/></mask><path d="M241.015 83.405h5.938l11.515-34.512h-5.94l-11.513 34.512zm6.63.959h-7.96l12.152-36.43h7.961l-12.153 36.43z" fill="#B226FB" fill-rule="nonzero" mask="url(#p)"/></g><g transform="translate(0 43)"><mask id="r" fill="#fff"><use xlink:href="#q"/></mask><path d="M257.326 83.405h5.938l11.514-34.512h-5.939l-11.513 34.512zm6.63.959h-7.96l12.151-36.43h7.962l-12.153 36.43z" fill="#B226FB" fill-rule="nonzero" mask="url(#r)"/></g><g transform="translate(0 43)"><mask id="t" fill="#fff"><use xlink:href="#s"/></mask><path d="M272.677 83.405h5.938l11.514-34.512h-5.939l-11.513 34.512zm6.63.959h-7.96l12.151-36.43h7.962l-12.153 36.43z" fill="#B226FB" fill-rule="nonzero" mask="url(#t)"/></g><g transform="translate(0 43)"><mask id="v" fill="#fff"><use xlink:href="#u"/></mask><path d="M288.987 83.405h5.938l11.515-34.512h-5.94l-11.513 34.512zm6.63.959h-7.96l12.152-36.43h7.961l-12.153 36.43z" fill="#B226FB" fill-rule="nonzero" mask="url(#v)"/></g><g transform="translate(0 43)"><mask id="x" fill="#fff"><use xlink:href="#w"/></mask><path d="M54.412 202.281h6.015l11.194-33.554h-6.016l-11.193 33.554zm6.706.959h-8.037l11.833-35.471h8.037l-11.833 35.47z" fill="#B226FB" fill-rule="nonzero" mask="url(#x)"/></g><g transform="translate(0 43)"><mask id="z" fill="#fff"><use xlink:href="#y"/></mask><path d="M215.943 83.405h5.94l11.513-34.512h-5.938l-11.515 34.512zm6.631.959h-7.961l12.153-36.43h7.96l-12.152 36.43z" fill="#B226FB" fill-rule="nonzero" mask="url(#z)"/></g><g transform="translate(0 43)"><mask id="B" fill="#fff"><use xlink:href="#A"/></mask><path d="M87.79 61.355c-4.497 0-8.155 3.656-8.155 8.15 0 4.492 3.658 8.148 8.155 8.148s8.155-3.656 8.155-8.149c0-4.493-3.658-8.149-8.155-8.149m0 17.257c-5.026 0-9.115-4.086-9.115-9.108 0-5.021 4.09-9.107 9.115-9.107s9.114 4.086 9.114 9.107c0 5.022-4.089 9.108-9.114 9.108" fill="#B226FB" fill-rule="nonzero" mask="url(#B)"/></g><g transform="translate(0 43)"><mask id="D" fill="#fff"><use xlink:href="#C"/></mask><path d="M48.453 141.884c-4.497 0-8.156 3.656-8.156 8.15 0 4.492 3.659 8.148 8.156 8.148 4.497 0 8.155-3.656 8.155-8.149 0-4.493-3.658-8.149-8.155-8.149m0 17.256c-5.026 0-9.115-4.085-9.115-9.107 0-5.021 4.09-9.107 9.115-9.107s9.114 4.086 9.114 9.107c0 5.022-4.089 9.107-9.114 9.107" fill="#B226FB" fill-rule="nonzero" mask="url(#D)"/></g><g transform="translate(0 43)"><mask id="F" fill="#fff"><use xlink:href="#E"/></mask><path d="M93.546 141.884c-4.496 0-8.155 3.656-8.155 8.15 0 4.492 3.659 8.148 8.155 8.148 4.497 0 8.156-3.656 8.156-8.149 0-4.493-3.659-8.149-8.156-8.149m0 17.256c-5.025 0-9.114-4.085-9.114-9.107 0-5.021 4.089-9.107 9.114-9.107 5.026 0 9.115 4.086 9.115 9.107 0 5.022-4.089 9.107-9.115 9.107" fill="#B226FB" fill-rule="nonzero" mask="url(#F)"/></g><g transform="translate(0 43)"><mask id="H" fill="#fff"><use xlink:href="#G"/></mask><path d="M30.754 227.207h38.088l3.515-10.546H33.964l-3.21 10.546zm38.78.958H29.458l3.795-12.463h40.435l-4.154 12.463z" fill="#B226FB" fill-rule="nonzero" mask="url(#H)"/></g><g transform="translate(0 43)"><mask id="J" fill="#fff"><use xlink:href="#I"/></mask><path fill="#B226FB" fill-rule="nonzero" mask="url(#J)" d="M248.496 276.1H.393L0 239.553l.025-.076L79.92 0h260.681v.959H80.613L.961 239.704l.382 35.436h247.153z"/></g></g></svg>