<?xml version="1.0" encoding="UTF-8" standalone="no"?>
<svg width="342px" height="277px" viewBox="0 0 342 277" version="1.1" xmlns="http://www.w3.org/2000/svg" xmlns:xlink="http://www.w3.org/1999/xlink">
    <!-- Generator: Sketch 47.1 (45422) - http://www.bohemiancoding.com/sketch -->
    <title>sh-101 art</title>
    <desc>Created with Sketch.</desc>
    <defs>
        <polygon id="path-1" points="0 276.099174 341.26821 276.099174 341.26821 0 0 0"></polygon>
    </defs>
    <g id="Symbols" stroke="none" stroke-width="1" fill="none" fill-rule="evenodd">
        <g id="sh-101-art">
            <g id="Page-1">
                <polygon id="Fill-1" fill="#141414" points="80.267181 0.479722314 0.481063497 239.62954 0.868677483 275.61926 248.496448 275.61926 340.602742 0.479722314"></polygon>
                <path d="M79.9209189,0 L0.0254251748,239.476727 L0.00047972028,239.55438 L0.39385035,276.099174 L248.841943,276.099174 L341.057613,0.630809917 L341.26869,0 L79.9209189,0 Z M0.96087972,239.703934 L80.6126755,0.958677686 L339.936027,0.958677686 L248.150186,275.140496 L1.3436965,275.140496 L0.96087972,239.703934 Z" id="Fill-2" fill="#141414"></path>
                <polygon id="Fill-3" fill="#B226FB" points="260.009351 239.773342 0.9604 239.669805 0.9604 238.711127 260.009351 238.814664"></polygon>
                <polygon id="Fill-4" fill="#B226FB" points="81.6892638 239.641332 80.7787547 239.342225 116.35577 131.568638 117.266279 131.867745"></polygon>
                <polygon id="Fill-5" fill="#B226FB" points="163.839443 239.744294 162.928934 239.445187 198.441667 131.865253 199.353135 132.16436"></polygon>
                <polygon id="Fill-6" fill="#B226FB" points="245.39189 239.744294 244.481381 239.445187 279.994114 131.865253 280.905583 132.16436"></polygon>
                <polygon id="Fill-7" fill="#B226FB" points="36.4597007 132.297521 295.508652 132.297521 295.508652 131.338843 36.4597007 131.338843"></polygon>
                <polygon id="Fill-8" fill="#B226FB" points="122.737201 239.64881 121.832449 239.334364 135.30971 200.685273 136.214463 201.000678"></polygon>
                <polygon id="Fill-9" fill="#B226FB" points="143.810162 201.322314 127.037222 201.322314 149.697289 131.670545 150.609717 131.965818 128.358371 200.363636 143.118405 200.363636 166.008738 131.666711 166.919247 131.969653"></polygon>
                <polygon id="Fill-10" fill="#B226FB" points="98.6959234 239.649769 97.7911709 239.333405 111.32408 200.684314 112.228832 201.001636"></polygon>
                <polygon id="Fill-11" fill="#B226FB" points="119.57028 201.322314 102.787745 201.322314 125.711659 131.668628 126.623127 131.967736 104.112733 200.363636 118.880442 200.363636 142.023108 131.665752 142.932657 131.970612"></polygon>
                <polygon id="Fill-12" fill="#B226FB" points="147.866293 239.646988 146.959621 239.336377 160.25363 200.687286 161.160301 200.998856"></polygon>
                <polygon id="Fill-13" fill="#B226FB" points="168.703231 201.322314 150.990039 201.322314 151.204954 200.688628 174.644087 131.663835 175.553636 131.972529 152.328459 200.363636 168.011474 200.363636 190.953617 131.666711 191.865085 131.969653"></polygon>
                <polygon id="Fill-14" fill="#B226FB" points="204.289649 239.64881 203.384896 239.334364 216.862158 200.685273 217.76691 201.000678"></polygon>
                <polygon id="Fill-15" fill="#B226FB" points="225.362609 201.322314 208.589669 201.322314 231.249737 131.670545 232.162164 131.965818 209.910819 200.363636 224.670853 200.363636 247.561185 131.666711 248.471695 131.969653"></polygon>
                <polygon id="Fill-16" fill="#B226FB" points="180.248371 239.649769 179.343618 239.333405 192.876528 200.684314 193.78128 201.001636"></polygon>
                <polygon id="Fill-17" fill="#B226FB" points="201.122727 201.322314 184.340193 201.322314 207.264106 131.668628 208.175575 131.967736 185.66518 200.363636 200.43289 200.363636 223.575555 131.665752 224.485105 131.970612"></polygon>
                <polygon id="Fill-18" fill="#B226FB" points="229.41874 239.646988 228.512069 239.336377 241.806077 200.687286 242.712749 200.998856"></polygon>
                <polygon id="Fill-19" fill="#B226FB" points="250.255678 201.322314 232.542487 201.322314 232.757401 200.688628 256.196534 131.663835 257.106084 131.972529 233.880906 200.363636 249.563922 200.363636 272.506064 131.666711 273.417533 131.969653"></polygon>
                <path d="M66.5040062,119.834711 L80.718118,119.834711 L84.3284929,109.289256 L69.7401992,109.289256 L66.5040062,119.834711 Z M81.404118,120.793388 L65.2049236,120.793388 L69.0302131,108.330579 L85.6707502,108.330579 L81.404118,120.793388 Z" id="Fill-20" fill="#B226FB"></path>
                <path d="M147.097013,119.834711 L161.311125,119.834711 L164.9215,109.289256 L150.333206,109.289256 L147.097013,119.834711 Z M161.997125,120.793388 L145.797931,120.793388 L149.62322,108.330579 L166.263757,108.330579 L161.997125,120.793388 Z" id="Fill-21" fill="#B226FB"></path>
                <path d="M171.083027,119.834711 L185.297139,119.834711 L188.907514,109.289256 L174.31922,109.289256 L171.083027,119.834711 Z M185.983139,120.793388 L169.783945,120.793388 L173.609234,108.330579 L190.249771,108.330579 L185.983139,120.793388 Z" id="Fill-22" fill="#B226FB"></path>
                <path d="M145.356204,61.3553719 C140.859306,61.3553719 137.200959,65.0108099 137.200959,69.5041322 C137.200959,73.9974545 140.859306,77.6528926 145.356204,77.6528926 C149.853102,77.6528926 153.511449,73.9974545 153.511449,69.5041322 C153.511449,65.0108099 149.853102,61.3553719 145.356204,61.3553719 Z M145.356204,78.6115702 C140.330655,78.6115702 136.241519,74.525686 136.241519,69.5041322 C136.241519,64.4825785 140.330655,60.3966942 145.356204,60.3966942 C150.381754,60.3966942 154.47089,64.4825785 154.47089,69.5041322 C154.47089,74.525686 150.381754,78.6115702 145.356204,78.6115702 Z" id="Fill-23" fill="#B226FB"></path>
                <path d="M201.963197,61.3553719 C197.466299,61.3553719 193.807952,65.0108099 193.807952,69.5041322 C193.807952,73.9974545 197.466299,77.6528926 201.963197,77.6528926 C206.460095,77.6528926 210.118442,73.9974545 210.118442,69.5041322 C210.118442,65.0108099 206.460095,61.3553719 201.963197,61.3553719 M201.963197,78.6115702 C196.937648,78.6115702 192.848512,74.525686 192.848512,69.5041322 C192.848512,64.4825785 196.937648,60.3966942 201.963197,60.3966942 C206.988747,60.3966942 211.077883,64.4825785 211.077883,69.5041322 C211.077883,74.525686 206.988747,78.6115702 201.963197,78.6115702" id="Fill-25" fill="#B226FB"></path>
                <mask id="mask-2" fill="white">
                    <use xlink:href="#path-1"></use>
                </mask>
                <g id="Clip-28"></g>
                <polygon id="Fill-27" fill="#B226FB" mask="url(#mask-2)" points="80.5939664 24.9256198 331.967393 24.9256198 331.967393 23.9669421 80.5939664 23.9669421"></polygon>
                <polygon id="Fill-29" fill="#B226FB" mask="url(#mask-2)" points="98.0719032 96.3021455 97.1594752 96.0078314 120.344356 24.288195 121.256784 24.5815504"></polygon>
                <polygon id="Fill-30" fill="#B226FB" mask="url(#mask-2)" points="154.27881 96.6419967 153.3683 96.3409719 177.2766 24.283881 178.187109 24.5858645"></polygon>
                <polygon id="Fill-31" fill="#B226FB" mask="url(#mask-2)" points="307.021938 96.8264463 55.4556643 96.8264463 84.5698881 12.4628099 335.805155 12.4628099 335.805155 13.4214876 85.2530098 13.4214876 56.8008 95.8677686 307.021938 95.8677686"></polygon>
                <path d="M110.27378,83.4049587 L116.212717,83.4049587 L127.726004,48.892562 L121.788027,48.892562 L110.27378,83.4049587 Z M116.904474,84.3636364 L108.943036,84.3636364 L121.09627,47.9338843 L129.056748,47.9338843 L116.904474,84.3636364 Z" id="Fill-32" fill="#B226FB" mask="url(#mask-2)"></path>
                <path d="M167.138479,83.4049587 L173.076457,83.4049587 L184.590703,48.892562 L178.651766,48.892562 L167.138479,83.4049587 Z M173.768213,84.3636364 L165.807735,84.3636364 L177.960009,47.9338843 L185.921447,47.9338843 L173.768213,84.3636364 Z" id="Fill-33" fill="#B226FB" mask="url(#mask-2)"></path>
                <polygon id="Fill-34" fill="#B226FB" mask="url(#mask-2)" points="228.155733 96.6419967 227.245223 96.3409719 251.153523 24.283881 252.064032 24.5858645"></polygon>
                <path d="M241.015402,83.4049587 L246.95338,83.4049587 L258.467626,48.892562 L252.528689,48.892562 L241.015402,83.4049587 Z M247.645137,84.3636364 L239.684658,84.3636364 L251.836932,47.9338843 L259.79837,47.9338843 L247.645137,84.3636364 Z" id="Fill-35" fill="#B226FB" mask="url(#mask-2)"></path>
                <path d="M257.325892,83.4049587 L263.263869,83.4049587 L274.778116,48.892562 L268.839178,48.892562 L257.325892,83.4049587 Z M263.955626,84.3636364 L255.995148,84.3636364 L268.147422,47.9338843 L276.10886,47.9338843 L263.955626,84.3636364 Z" id="Fill-36" fill="#B226FB" mask="url(#mask-2)"></path>
                <path d="M272.676941,83.4049587 L278.614918,83.4049587 L290.129164,48.892562 L284.190227,48.892562 L272.676941,83.4049587 Z M279.306675,84.3636364 L271.346197,84.3636364 L283.498471,47.9338843 L291.459909,47.9338843 L279.306675,84.3636364 Z" id="Fill-37" fill="#B226FB" mask="url(#mask-2)"></path>
                <path d="M288.98743,83.4049587 L294.925408,83.4049587 L306.439654,48.892562 L300.500717,48.892562 L288.98743,83.4049587 Z M295.617164,84.3636364 L287.656686,84.3636364 L299.80896,47.9338843 L307.770398,47.9338843 L295.617164,84.3636364 Z" id="Fill-38" fill="#B226FB" mask="url(#mask-2)"></path>
                <path d="M54.4116971,202.280992 L60.4273894,202.280992 L71.6211824,168.727273 L65.6054901,168.727273 L54.4116971,202.280992 Z M61.1181866,203.239669 L53.080953,203.239669 L64.9137334,167.768595 L72.950967,167.768595 L61.1181866,203.239669 Z" id="Fill-39" fill="#B226FB" mask="url(#mask-2)"></path>
                <path d="M215.943493,83.4049587 L221.88243,83.4049587 L233.395717,48.892562 L227.45774,48.892562 L215.943493,83.4049587 Z M222.574187,84.3636364 L214.612749,84.3636364 L226.765983,47.9338843 L234.726461,47.9338843 L222.574187,84.3636364 Z" id="Fill-40" fill="#B226FB" mask="url(#mask-2)"></path>
                <path d="M87.7897706,61.3553719 C83.2928727,61.3553719 79.6345259,65.0108099 79.6345259,69.5041322 C79.6345259,73.9974545 83.2928727,77.6528926 87.7897706,77.6528926 C92.2866685,77.6528926 95.9450154,73.9974545 95.9450154,69.5041322 C95.9450154,65.0108099 92.2866685,61.3553719 87.7897706,61.3553719 M87.7897706,78.6115702 C82.764221,78.6115702 78.6750853,74.525686 78.6750853,69.5041322 C78.6750853,64.4825785 82.764221,60.3966942 87.7897706,60.3966942 C92.8153203,60.3966942 96.9044559,64.4825785 96.9044559,69.5041322 C96.9044559,74.525686 92.8153203,78.6115702 87.7897706,78.6115702" id="Fill-41" fill="#B226FB" mask="url(#mask-2)"></path>
                <path d="M48.4527077,141.884298 C43.9558098,141.884298 40.2974629,145.539736 40.2974629,150.033058 C40.2974629,154.52638 43.9558098,158.181818 48.4527077,158.181818 C52.9496056,158.181818 56.6079524,154.52638 56.6079524,150.033058 C56.6079524,145.539736 52.9496056,141.884298 48.4527077,141.884298 M48.4527077,159.140496 C43.427158,159.140496 39.3380224,155.054612 39.3380224,150.033058 C39.3380224,145.011504 43.427158,140.92562 48.4527077,140.92562 C53.4782573,140.92562 57.567393,145.011504 57.567393,150.033058 C57.567393,155.054612 53.4782573,159.140496 48.4527077,159.140496" id="Fill-42" fill="#B226FB" mask="url(#mask-2)"></path>
                <path d="M93.546414,141.884298 C89.0495161,141.884298 85.3911692,145.539736 85.3911692,150.033058 C85.3911692,154.52638 89.0495161,158.181818 93.546414,158.181818 C98.0433119,158.181818 101.701659,154.52638 101.701659,150.033058 C101.701659,145.539736 98.0433119,141.884298 93.546414,141.884298 M93.546414,159.140496 C88.5208643,159.140496 84.4317287,155.054612 84.4317287,150.033058 C84.4317287,145.011504 88.5208643,140.92562 93.546414,140.92562 C98.5719636,140.92562 102.661099,145.011504 102.661099,150.033058 C102.661099,155.054612 98.5719636,159.140496 93.546414,159.140496" id="Fill-43" fill="#B226FB" mask="url(#mask-2)"></path>
                <path d="M30.7536199,227.206612 L68.8424506,227.206612 L72.3568814,216.661157 L33.963908,216.661157 L30.7536199,227.206612 Z M69.5342073,228.165289 L29.4583751,228.165289 L33.2529625,215.702479 L73.6876255,215.702479 L69.5342073,228.165289 Z" id="Fill-44" fill="#B226FB" mask="url(#mask-2)"></path>
                <polygon id="Fill-45" fill="#B226FB" mask="url(#mask-2)" points="248.496064 276.099174 0.393370629 276.099174 0 239.55438 0.0249454545 239.477686 79.9213986 0 340.602358 0 340.602358 0.958677686 80.6131552 0.958677686 0.961359441 239.703934 1.34321678 275.140496 248.496064 275.140496"></polygon>
            </g>
        </g>
    </g>
</svg>